<svg xmlns="http://www.w3.org/2000/svg" width="950" height="560" viewBox="0 0 950 560" role="img" aria-label="Volum mediu tranzactionat pe simbol"><rect width="100%" height="100%" fill="#ffffff" />
<line x1="85" y1="445" x2="845" y2="445" stroke="#334155" /><line x1="85" y1="65" x2="85" y2="445" stroke="#334155" /><line x1="85" y1="65" x2="845" y2="65" stroke="#e2e8f0" /><line x1="845" y1="65" x2="845" y2="445" stroke="#e2e8f0" />
<text x="35.00" y="38.00" font-family="Arial, sans-serif" font-size="24" font-weight="bold" fill="#0f172a">Volum mediu tranzactionat pe simbol</text>
<text x="18.00" y="77.00" font-family="Arial, sans-serif" font-size="12" font-weight="normal" fill="#0f172a">43.0M</text>
<text x="42.00" y="445.00" font-family="Arial, sans-serif" font-size="12" font-weight="normal" fill="#0f172a">0</text>
<rect x="113.00" y="134.15" width="118.40" height="310.85" fill="#2563eb" />
<text x="154.20" y="473.00" font-family="Arial, sans-serif" font-size="14" font-weight="normal" fill="#0f172a">AAPL</text>
<text x="130.20" y="124.15" font-family="Arial, sans-serif" font-size="12" font-weight="normal" fill="#0f172a">35.2M</text>
<rect x="259.40" y="332.33" width="118.40" height="112.67" fill="#ea580c" />
<text x="300.60" y="473.00" font-family="Arial, sans-serif" font-size="14" font-weight="normal" fill="#0f172a">AMZN</text>
<text x="276.60" y="322.33" font-family="Arial, sans-serif" font-size="12" font-weight="normal" fill="#0f172a">12.8M</text>
<rect x="405.80" y="347.65" width="118.40" height="97.35" fill="#dc2626" />
<text x="447.00" y="473.00" font-family="Arial, sans-serif" font-size="14" font-weight="normal" fill="#0f172a">GOOGL</text>
<text x="423.00" y="337.65" font-family="Arial, sans-serif" font-size="12" font-weight="normal" fill="#0f172a">11.0M</text>
<rect x="552.20" y="65.00" width="118.40" height="380.00" fill="#16a34a" />
<text x="593.40" y="473.00" font-family="Arial, sans-serif" font-size="14" font-weight="normal" fill="#0f172a">MSFT</text>
<text x="569.40" y="55.00" font-family="Arial, sans-serif" font-size="12" font-weight="normal" fill="#0f172a">43.0M</text>
<rect x="698.60" y="169.26" width="118.40" height="275.74" fill="#9333ea" />
<text x="739.80" y="473.00" font-family="Arial, sans-serif" font-size="14" font-weight="normal" fill="#0f172a">NVDA</text>
<text x="715.80" y="159.26" font-family="Arial, sans-serif" font-size="12" font-weight="normal" fill="#0f172a">31.2M</text>
</svg>