<svg xmlns="http://www.w3.org/2000/svg" width="1120" height="1215" viewBox="0 0 1120 1215" role="img" aria-label="Observatii disponibile pentru modelare pe simbol"><rect width="100%" height="100%" fill="#ffffff" />
<text x="35.00" y="42.00" font-family="Arial, sans-serif" font-size="24" font-weight="bold" fill="#0f172a">Observatii disponibile pentru modelare pe simbol</text>
<line x1="145" y1="55" x2="145" y2="1165" stroke="#334155" />
<text x="35.00" y="78.00" font-family="Arial, sans-serif" font-size="12" font-weight="normal" fill="#0f172a">WMT</text>
<rect x="145" y="65.00" width="3.11" height="14" fill="#2563eb" />
<text x="156.11" y="77.00" font-family="Arial, sans-serif" font-size="11" font-weight="normal" fill="#0f172a">25</text>
<text x="35.00" y="100.00" font-family="Arial, sans-serif" font-size="12" font-weight="normal" fill="#0f172a">SHOP</text>
<rect x="145" y="87.00" width="25.14" height="14" fill="#2563eb" />
<text x="178.14" y="99.00" font-family="Arial, sans-serif" font-size="11" font-weight="normal" fill="#0f172a">202</text>
<text x="35.00" y="122.00" font-family="Arial, sans-serif" font-size="12" font-weight="normal" fill="#0f172a">SNDK</text>
<rect x="145" y="109.00" width="28.00" height="14" fill="#2563eb" />
<text x="181.00" y="121.00" font-family="Arial, sans-serif" font-size="11" font-weight="normal" fill="#0f172a">225</text>
<text x="35.00" y="144.00" font-family="Arial, sans-serif" font-size="12" font-weight="normal" fill="#0f172a">PLTR</text>
<rect x="145" y="131.00" width="35.10" height="14" fill="#2563eb" />
<text x="188.10" y="143.00" font-family="Arial, sans-serif" font-size="11" font-weight="normal" fill="#0f172a">282</text>
<text x="35.00" y="166.00" font-family="Arial, sans-serif" font-size="12" font-weight="normal" fill="#0f172a">LIN</text>
<rect x="145" y="153.00" width="68.20" height="14" fill="#2563eb" />
<text x="221.20" y="165.00" font-family="Arial, sans-serif" font-size="11" font-weight="normal" fill="#0f172a">548</text>
<text x="35.00" y="188.00" font-family="Arial, sans-serif" font-size="12" font-weight="normal" fill="#0f172a">ARM</text>
<rect x="145" y="175.00" width="72.93" height="14" fill="#2563eb" />
<text x="225.93" y="187.00" font-family="Arial, sans-serif" font-size="11" font-weight="normal" fill="#0f172a">586</text>
<text x="35.00" y="210.00" font-family="Arial, sans-serif" font-size="12" font-weight="normal" fill="#0f172a">META</text>
<rect x="145" y="197.00" width="112.64" height="14" fill="#2563eb" />
<text x="265.64" y="209.00" font-family="Arial, sans-serif" font-size="11" font-weight="normal" fill="#0f172a">905</text>
<text x="35.00" y="232.00" font-family="Arial, sans-serif" font-size="12" font-weight="normal" fill="#0f172a">CEG</text>
<rect x="145" y="219.00" width="123.59" height="14" fill="#2563eb" />
<text x="276.59" y="231.00" font-family="Arial, sans-serif" font-size="11" font-weight="normal" fill="#0f172a">993</text>
<text x="35.00" y="254.00" font-family="Arial, sans-serif" font-size="12" font-weight="normal" fill="#0f172a">PANW</text>
<rect x="145" y="241.00" width="128.69" height="14" fill="#2563eb" />
<text x="281.69" y="253.00" font-family="Arial, sans-serif" font-size="11" font-weight="normal" fill="#0f172a">1.0K</text>
<text x="35.00" y="276.00" font-family="Arial, sans-serif" font-size="12" font-weight="normal" fill="#0f172a">HON</text>
<rect x="145" y="263.00" width="143.13" height="14" fill="#2563eb" />
<text x="296.13" y="275.00" font-family="Arial, sans-serif" font-size="11" font-weight="normal" fill="#0f172a">1.1K</text>
<text x="35.00" y="298.00" font-family="Arial, sans-serif" font-size="12" font-weight="normal" fill="#0f172a">APP</text>
<rect x="145" y="285.00" width="145.37" height="14" fill="#2563eb" />
<text x="298.37" y="297.00" font-family="Arial, sans-serif" font-size="11" font-weight="normal" fill="#0f172a">1.2K</text>
<text x="35.00" y="320.00" font-family="Arial, sans-serif" font-size="12" font-weight="normal" fill="#0f172a">CRWD</text>
<rect x="145" y="307.00" width="203.00" height="14" fill="#2563eb" />
<text x="356.00" y="319.00" font-family="Arial, sans-serif" font-size="11" font-weight="normal" fill="#0f172a">1.6K</text>
<text x="35.00" y="342.00" font-family="Arial, sans-serif" font-size="12" font-weight="normal" fill="#0f172a">PDD</text>
<rect x="145" y="329.00" width="230.38" height="14" fill="#2563eb" />
<text x="383.38" y="341.00" font-family="Arial, sans-serif" font-size="11" font-weight="normal" fill="#0f172a">1.9K</text>
<text x="35.00" y="364.00" font-family="Arial, sans-serif" font-size="12" font-weight="normal" fill="#0f172a">BKNG</text>
<rect x="145" y="351.00" width="243.32" height="14" fill="#2563eb" />
<text x="396.32" y="363.00" font-family="Arial, sans-serif" font-size="11" font-weight="normal" fill="#0f172a">2.0K</text>
<text x="35.00" y="386.00" font-family="Arial, sans-serif" font-size="12" font-weight="normal" fill="#0f172a">PEP</text>
<rect x="145" y="373.00" width="249.30" height="14" fill="#2563eb" />
<text x="402.30" y="385.00" font-family="Arial, sans-serif" font-size="11" font-weight="normal" fill="#0f172a">2.0K</text>
<text x="35.00" y="408.00" font-family="Arial, sans-serif" font-size="12" font-weight="normal" fill="#0f172a">TMUS</text>
<rect x="145" y="395.00" width="316.63" height="14" fill="#2563eb" />
<text x="469.63" y="407.00" font-family="Arial, sans-serif" font-size="11" font-weight="normal" fill="#0f172a">2.5K</text>
<text x="35.00" y="430.00" font-family="Arial, sans-serif" font-size="12" font-weight="normal" fill="#0f172a">GOOGL</text>
<rect x="145" y="417.00" width="365.67" height="14" fill="#2563eb" />
<text x="518.67" y="429.00" font-family="Arial, sans-serif" font-size="11" font-weight="normal" fill="#0f172a">2.9K</text>
<text x="35.00" y="452.00" font-family="Arial, sans-serif" font-size="12" font-weight="normal" fill="#0f172a">MAR</text>
<rect x="145" y="439.00" width="379.73" height="14" fill="#2563eb" />
<text x="532.73" y="451.00" font-family="Arial, sans-serif" font-size="11" font-weight="normal" fill="#0f172a">3.1K</text>
<text x="35.00" y="474.00" font-family="Arial, sans-serif" font-size="12" font-weight="normal" fill="#0f172a">TSLA</text>
<rect x="145" y="461.00" width="483.41" height="14" fill="#2563eb" />
<text x="636.41" y="473.00" font-family="Arial, sans-serif" font-size="11" font-weight="normal" fill="#0f172a">3.9K</text>
<text x="35.00" y="496.00" font-family="Arial, sans-serif" font-size="12" font-weight="normal" fill="#0f172a">FTNT</text>
<rect x="145" y="483.00" width="502.58" height="14" fill="#2563eb" />
<text x="655.58" y="495.00" font-family="Arial, sans-serif" font-size="11" font-weight="normal" fill="#0f172a">4.0K</text>
<text x="35.00" y="518.00" font-family="Arial, sans-serif" font-size="12" font-weight="normal" fill="#0f172a">AVGO</text>
<rect x="145" y="505.00" width="511.41" height="14" fill="#2563eb" />
<text x="664.41" y="517.00" font-family="Arial, sans-serif" font-size="11" font-weight="normal" fill="#0f172a">4.1K</text>
<text x="35.00" y="540.00" font-family="Arial, sans-serif" font-size="12" font-weight="normal" fill="#0f172a">STX</text>
<rect x="145" y="527.00" width="539.29" height="14" fill="#2563eb" />
<text x="692.29" y="539.00" font-family="Arial, sans-serif" font-size="11" font-weight="normal" fill="#0f172a">4.3K</text>
<text x="35.00" y="562.00" font-family="Arial, sans-serif" font-size="12" font-weight="normal" fill="#0f172a">CDNS</text>
<rect x="145" y="549.00" width="629.65" height="14" fill="#2563eb" />
<text x="782.65" y="561.00" font-family="Arial, sans-serif" font-size="11" font-weight="normal" fill="#0f172a">5.1K</text>
<text x="35.00" y="584.00" font-family="Arial, sans-serif" font-size="12" font-weight="normal" fill="#0f172a">GOOG</text>
<rect x="145" y="571.00" width="666.49" height="14" fill="#2563eb" />
<text x="819.49" y="583.00" font-family="Arial, sans-serif" font-size="11" font-weight="normal" fill="#0f172a">5.4K</text>
<text x="35.00" y="606.00" font-family="Arial, sans-serif" font-size="12" font-weight="normal" fill="#0f172a">NFLX</text>
<rect x="145" y="593.00" width="736.69" height="14" fill="#2563eb" />
<text x="889.69" y="605.00" font-family="Arial, sans-serif" font-size="11" font-weight="normal" fill="#0f172a">5.9K</text>
<text x="35.00" y="628.00" font-family="Arial, sans-serif" font-size="12" font-weight="normal" fill="#0f172a">ASML</text>
<rect x="145" y="615.00" width="777.51" height="14" fill="#2563eb" />
<text x="930.51" y="627.00" font-family="Arial, sans-serif" font-size="11" font-weight="normal" fill="#0f172a">6.2K</text>
<text x="35.00" y="650.00" font-family="Arial, sans-serif" font-size="12" font-weight="normal" fill="#0f172a">GILD</text>
<rect x="145" y="637.00" width="779.50" height="14" fill="#2563eb" />
<text x="932.50" y="649.00" font-family="Arial, sans-serif" font-size="11" font-weight="normal" fill="#0f172a">6.3K</text>
<text x="35.00" y="672.00" font-family="Arial, sans-serif" font-size="12" font-weight="normal" fill="#0f172a">VRTX</text>
<rect x="145" y="659.00" width="779.75" height="14" fill="#2563eb" />
<text x="932.75" y="671.00" font-family="Arial, sans-serif" font-size="11" font-weight="normal" fill="#0f172a">6.3K</text>
<text x="35.00" y="694.00" font-family="Arial, sans-serif" font-size="12" font-weight="normal" fill="#0f172a">MU</text>
<rect x="145" y="681.00" width="779.88" height="14" fill="#2563eb" />
<text x="932.88" y="693.00" font-family="Arial, sans-serif" font-size="11" font-weight="normal" fill="#0f172a">6.3K</text>
<text x="35.00" y="716.00" font-family="Arial, sans-serif" font-size="12" font-weight="normal" fill="#0f172a">SBUX</text>
<rect x="145" y="703.00" width="779.88" height="14" fill="#2563eb" />
<text x="932.88" y="715.00" font-family="Arial, sans-serif" font-size="11" font-weight="normal" fill="#0f172a">6.3K</text>
<text x="35.00" y="738.00" font-family="Arial, sans-serif" font-size="12" font-weight="normal" fill="#0f172a">AMGN</text>
<rect x="145" y="725.00" width="779.88" height="14" fill="#2563eb" />
<text x="932.88" y="737.00" font-family="Arial, sans-serif" font-size="11" font-weight="normal" fill="#0f172a">6.3K</text>
<text x="35.00" y="760.00" font-family="Arial, sans-serif" font-size="12" font-weight="normal" fill="#0f172a">ADP</text>
<rect x="145" y="747.00" width="779.88" height="14" fill="#2563eb" />
<text x="932.88" y="759.00" font-family="Arial, sans-serif" font-size="11" font-weight="normal" fill="#0f172a">6.3K</text>
<text x="35.00" y="782.00" font-family="Arial, sans-serif" font-size="12" font-weight="normal" fill="#0f172a">TXN</text>
<rect x="145" y="769.00" width="780.00" height="14" fill="#2563eb" />
<text x="933.00" y="781.00" font-family="Arial, sans-serif" font-size="11" font-weight="normal" fill="#0f172a">6.3K</text>
<text x="35.00" y="804.00" font-family="Arial, sans-serif" font-size="12" font-weight="normal" fill="#0f172a">QCOM</text>
<rect x="145" y="791.00" width="780.00" height="14" fill="#2563eb" />
<text x="933.00" y="803.00" font-family="Arial, sans-serif" font-size="11" font-weight="normal" fill="#0f172a">6.3K</text>
<text x="35.00" y="826.00" font-family="Arial, sans-serif" font-size="12" font-weight="normal" fill="#0f172a">AAPL</text>
<rect x="145" y="813.00" width="780.00" height="14" fill="#2563eb" />
<text x="933.00" y="825.00" font-family="Arial, sans-serif" font-size="11" font-weight="normal" fill="#0f172a">6.3K</text>
<text x="35.00" y="848.00" font-family="Arial, sans-serif" font-size="12" font-weight="normal" fill="#0f172a">MSFT</text>
<rect x="145" y="835.00" width="780.00" height="14" fill="#2563eb" />
<text x="933.00" y="847.00" font-family="Arial, sans-serif" font-size="11" font-weight="normal" fill="#0f172a">6.3K</text>
<text x="35.00" y="870.00" font-family="Arial, sans-serif" font-size="12" font-weight="normal" fill="#0f172a">MRVL</text>
<rect x="145" y="857.00" width="780.00" height="14" fill="#2563eb" />
<text x="933.00" y="869.00" font-family="Arial, sans-serif" font-size="11" font-weight="normal" fill="#0f172a">6.3K</text>
<text x="35.00" y="892.00" font-family="Arial, sans-serif" font-size="12" font-weight="normal" fill="#0f172a">LRCX</text>
<rect x="145" y="879.00" width="780.00" height="14" fill="#2563eb" />
<text x="933.00" y="891.00" font-family="Arial, sans-serif" font-size="11" font-weight="normal" fill="#0f172a">6.3K</text>
<text x="35.00" y="914.00" font-family="Arial, sans-serif" font-size="12" font-weight="normal" fill="#0f172a">KLAC</text>
<rect x="145" y="901.00" width="780.00" height="14" fill="#2563eb" />
<text x="933.00" y="913.00" font-family="Arial, sans-serif" font-size="11" font-weight="normal" fill="#0f172a">6.3K</text>
<text x="35.00" y="936.00" font-family="Arial, sans-serif" font-size="12" font-weight="normal" fill="#0f172a">WDC</text>
<rect x="145" y="923.00" width="780.00" height="14" fill="#2563eb" />
<text x="933.00" y="935.00" font-family="Arial, sans-serif" font-size="11" font-weight="normal" fill="#0f172a">6.3K</text>
<text x="35.00" y="958.00" font-family="Arial, sans-serif" font-size="12" font-weight="normal" fill="#0f172a">INTC</text>
<rect x="145" y="945.00" width="780.00" height="14" fill="#2563eb" />
<text x="933.00" y="957.00" font-family="Arial, sans-serif" font-size="11" font-weight="normal" fill="#0f172a">6.3K</text>
<text x="35.00" y="980.00" font-family="Arial, sans-serif" font-size="12" font-weight="normal" fill="#0f172a">CSCO</text>
<rect x="145" y="967.00" width="780.00" height="14" fill="#2563eb" />
<text x="933.00" y="979.00" font-family="Arial, sans-serif" font-size="11" font-weight="normal" fill="#0f172a">6.3K</text>
<text x="35.00" y="1002.00" font-family="Arial, sans-serif" font-size="12" font-weight="normal" fill="#0f172a">COST</text>
<rect x="145" y="989.00" width="780.00" height="14" fill="#2563eb" />
<text x="933.00" y="1001.00" font-family="Arial, sans-serif" font-size="11" font-weight="normal" fill="#0f172a">6.3K</text>
<text x="35.00" y="1024.00" font-family="Arial, sans-serif" font-size="12" font-weight="normal" fill="#0f172a">AMZN</text>
<rect x="145" y="1011.00" width="780.00" height="14" fill="#2563eb" />
<text x="933.00" y="1023.00" font-family="Arial, sans-serif" font-size="11" font-weight="normal" fill="#0f172a">6.3K</text>
<text x="35.00" y="1046.00" font-family="Arial, sans-serif" font-size="12" font-weight="normal" fill="#0f172a">AMD</text>
<rect x="145" y="1033.00" width="780.00" height="14" fill="#2563eb" />
<text x="933.00" y="1045.00" font-family="Arial, sans-serif" font-size="11" font-weight="normal" fill="#0f172a">6.3K</text>
<text x="35.00" y="1068.00" font-family="Arial, sans-serif" font-size="12" font-weight="normal" fill="#0f172a">AMAT</text>
<rect x="145" y="1055.00" width="780.00" height="14" fill="#2563eb" />
<text x="933.00" y="1067.00" font-family="Arial, sans-serif" font-size="11" font-weight="normal" fill="#0f172a">6.3K</text>
<text x="35.00" y="1090.00" font-family="Arial, sans-serif" font-size="12" font-weight="normal" fill="#0f172a">ADI</text>
<rect x="145" y="1077.00" width="780.00" height="14" fill="#2563eb" />
<text x="933.00" y="1089.00" font-family="Arial, sans-serif" font-size="11" font-weight="normal" fill="#0f172a">6.3K</text>
<text x="35.00" y="1112.00" font-family="Arial, sans-serif" font-size="12" font-weight="normal" fill="#0f172a">ADBE</text>
<rect x="145" y="1099.00" width="780.00" height="14" fill="#2563eb" />
<text x="933.00" y="1111.00" font-family="Arial, sans-serif" font-size="11" font-weight="normal" fill="#0f172a">6.3K</text>
<text x="35.00" y="1134.00" font-family="Arial, sans-serif" font-size="12" font-weight="normal" fill="#0f172a">NVDA</text>
<rect x="145" y="1121.00" width="780.00" height="14" fill="#2563eb" />
<text x="933.00" y="1133.00" font-family="Arial, sans-serif" font-size="11" font-weight="normal" fill="#0f172a">6.3K</text>
<text x="35.00" y="1156.00" font-family="Arial, sans-serif" font-size="12" font-weight="normal" fill="#0f172a">ISRG</text>
<rect x="145" y="1143.00" width="780.00" height="14" fill="#2563eb" />
<text x="933.00" y="1155.00" font-family="Arial, sans-serif" font-size="11" font-weight="normal" fill="#0f172a">6.3K</text>
</svg>