<svg xmlns="http://www.w3.org/2000/svg" width="1120" height="1215" viewBox="0 0 1120 1215" role="img" aria-label="Drawdown viitor mediu pe simbol"><rect width="100%" height="100%" fill="#ffffff" />
<text x="35.00" y="42.00" font-family="Arial, sans-serif" font-size="24" font-weight="bold" fill="#0f172a">Drawdown viitor mediu pe simbol</text>
<line x1="145" y1="55" x2="145" y2="1165" stroke="#334155" />
<text x="35.00" y="78.00" font-family="Arial, sans-serif" font-size="12" font-weight="normal" fill="#0f172a">LIN</text>
<rect x="145" y="65.00" width="207.84" height="14" fill="#dc2626" />
<text x="360.84" y="77.00" font-family="Arial, sans-serif" font-size="11" font-weight="normal" fill="#0f172a">1.98%</text>
<text x="35.00" y="100.00" font-family="Arial, sans-serif" font-size="12" font-weight="normal" fill="#0f172a">PEP</text>
<rect x="145" y="87.00" width="216.56" height="14" fill="#dc2626" />
<text x="369.56" y="99.00" font-family="Arial, sans-serif" font-size="11" font-weight="normal" fill="#0f172a">2.07%</text>
<text x="35.00" y="122.00" font-family="Arial, sans-serif" font-size="12" font-weight="normal" fill="#0f172a">WMT</text>
<rect x="145" y="109.00" width="238.00" height="14" fill="#dc2626" />
<text x="391.00" y="121.00" font-family="Arial, sans-serif" font-size="11" font-weight="normal" fill="#0f172a">2.27%</text>
<text x="35.00" y="144.00" font-family="Arial, sans-serif" font-size="12" font-weight="normal" fill="#0f172a">COST</text>
<rect x="145" y="131.00" width="241.95" height="14" fill="#dc2626" />
<text x="394.95" y="143.00" font-family="Arial, sans-serif" font-size="11" font-weight="normal" fill="#0f172a">2.31%</text>
<text x="35.00" y="166.00" font-family="Arial, sans-serif" font-size="12" font-weight="normal" fill="#0f172a">ADP</text>
<rect x="145" y="153.00" width="243.45" height="14" fill="#dc2626" />
<text x="396.45" y="165.00" font-family="Arial, sans-serif" font-size="11" font-weight="normal" fill="#0f172a">2.32%</text>
<text x="35.00" y="188.00" font-family="Arial, sans-serif" font-size="12" font-weight="normal" fill="#0f172a">TMUS</text>
<rect x="145" y="175.00" width="252.61" height="14" fill="#dc2626" />
<text x="405.61" y="187.00" font-family="Arial, sans-serif" font-size="11" font-weight="normal" fill="#0f172a">2.41%</text>
<text x="35.00" y="210.00" font-family="Arial, sans-serif" font-size="12" font-weight="normal" fill="#0f172a">HON</text>
<rect x="145" y="197.00" width="263.14" height="14" fill="#dc2626" />
<text x="416.14" y="209.00" font-family="Arial, sans-serif" font-size="11" font-weight="normal" fill="#0f172a">2.51%</text>
<text x="35.00" y="232.00" font-family="Arial, sans-serif" font-size="12" font-weight="normal" fill="#0f172a">MSFT</text>
<rect x="145" y="219.00" width="279.15" height="14" fill="#dc2626" />
<text x="432.15" y="231.00" font-family="Arial, sans-serif" font-size="11" font-weight="normal" fill="#0f172a">2.66%</text>
<text x="35.00" y="254.00" font-family="Arial, sans-serif" font-size="12" font-weight="normal" fill="#0f172a">AMGN</text>
<rect x="145" y="241.00" width="296.43" height="14" fill="#dc2626" />
<text x="449.43" y="253.00" font-family="Arial, sans-serif" font-size="11" font-weight="normal" fill="#0f172a">2.83%</text>
<text x="35.00" y="276.00" font-family="Arial, sans-serif" font-size="12" font-weight="normal" fill="#0f172a">SBUX</text>
<rect x="145" y="263.00" width="317.01" height="14" fill="#dc2626" />
<text x="470.01" y="275.00" font-family="Arial, sans-serif" font-size="11" font-weight="normal" fill="#0f172a">3.02%</text>
<text x="35.00" y="298.00" font-family="Arial, sans-serif" font-size="12" font-weight="normal" fill="#0f172a">GOOGL</text>
<rect x="145" y="285.00" width="318.29" height="14" fill="#dc2626" />
<text x="471.29" y="297.00" font-family="Arial, sans-serif" font-size="11" font-weight="normal" fill="#0f172a">3.04%</text>
<text x="35.00" y="320.00" font-family="Arial, sans-serif" font-size="12" font-weight="normal" fill="#0f172a">MAR</text>
<rect x="145" y="307.00" width="319.19" height="14" fill="#dc2626" />
<text x="472.19" y="319.00" font-family="Arial, sans-serif" font-size="11" font-weight="normal" fill="#0f172a">3.04%</text>
<text x="35.00" y="342.00" font-family="Arial, sans-serif" font-size="12" font-weight="normal" fill="#0f172a">GOOG</text>
<rect x="145" y="329.00" width="320.88" height="14" fill="#dc2626" />
<text x="473.88" y="341.00" font-family="Arial, sans-serif" font-size="11" font-weight="normal" fill="#0f172a">3.06%</text>
<text x="35.00" y="364.00" font-family="Arial, sans-serif" font-size="12" font-weight="normal" fill="#0f172a">CSCO</text>
<rect x="145" y="351.00" width="331.44" height="14" fill="#dc2626" />
<text x="484.44" y="363.00" font-family="Arial, sans-serif" font-size="11" font-weight="normal" fill="#0f172a">3.16%</text>
<text x="35.00" y="386.00" font-family="Arial, sans-serif" font-size="12" font-weight="normal" fill="#0f172a">GILD</text>
<rect x="145" y="373.00" width="340.69" height="14" fill="#dc2626" />
<text x="493.69" y="385.00" font-family="Arial, sans-serif" font-size="11" font-weight="normal" fill="#0f172a">3.25%</text>
<text x="35.00" y="408.00" font-family="Arial, sans-serif" font-size="12" font-weight="normal" fill="#0f172a">AAPL</text>
<rect x="145" y="395.00" width="346.45" height="14" fill="#dc2626" />
<text x="499.45" y="407.00" font-family="Arial, sans-serif" font-size="11" font-weight="normal" fill="#0f172a">3.30%</text>
<text x="35.00" y="430.00" font-family="Arial, sans-serif" font-size="12" font-weight="normal" fill="#0f172a">TXN</text>
<rect x="145" y="417.00" width="353.41" height="14" fill="#dc2626" />
<text x="506.41" y="429.00" font-family="Arial, sans-serif" font-size="11" font-weight="normal" fill="#0f172a">3.37%</text>
<text x="35.00" y="452.00" font-family="Arial, sans-serif" font-size="12" font-weight="normal" fill="#0f172a">CDNS</text>
<rect x="145" y="439.00" width="356.13" height="14" fill="#dc2626" />
<text x="509.13" y="451.00" font-family="Arial, sans-serif" font-size="11" font-weight="normal" fill="#0f172a">3.40%</text>
<text x="35.00" y="474.00" font-family="Arial, sans-serif" font-size="12" font-weight="normal" fill="#0f172a">ADI</text>
<rect x="145" y="461.00" width="365.12" height="14" fill="#dc2626" />
<text x="518.12" y="473.00" font-family="Arial, sans-serif" font-size="11" font-weight="normal" fill="#0f172a">3.48%</text>
<text x="35.00" y="496.00" font-family="Arial, sans-serif" font-size="12" font-weight="normal" fill="#0f172a">META</text>
<rect x="145" y="483.00" width="379.91" height="14" fill="#dc2626" />
<text x="532.91" y="495.00" font-family="Arial, sans-serif" font-size="11" font-weight="normal" fill="#0f172a">3.62%</text>
<text x="35.00" y="518.00" font-family="Arial, sans-serif" font-size="12" font-weight="normal" fill="#0f172a">AVGO</text>
<rect x="145" y="505.00" width="380.27" height="14" fill="#dc2626" />
<text x="533.27" y="517.00" font-family="Arial, sans-serif" font-size="11" font-weight="normal" fill="#0f172a">3.63%</text>
<text x="35.00" y="540.00" font-family="Arial, sans-serif" font-size="12" font-weight="normal" fill="#0f172a">ADBE</text>
<rect x="145" y="527.00" width="385.58" height="14" fill="#dc2626" />
<text x="538.58" y="539.00" font-family="Arial, sans-serif" font-size="11" font-weight="normal" fill="#0f172a">3.68%</text>
<text x="35.00" y="562.00" font-family="Arial, sans-serif" font-size="12" font-weight="normal" fill="#0f172a">QCOM</text>
<rect x="145" y="549.00" width="391.71" height="14" fill="#dc2626" />
<text x="544.71" y="561.00" font-family="Arial, sans-serif" font-size="11" font-weight="normal" fill="#0f172a">3.74%</text>
<text x="35.00" y="584.00" font-family="Arial, sans-serif" font-size="12" font-weight="normal" fill="#0f172a">INTC</text>
<rect x="145" y="571.00" width="394.64" height="14" fill="#dc2626" />
<text x="547.64" y="583.00" font-family="Arial, sans-serif" font-size="11" font-weight="normal" fill="#0f172a">3.76%</text>
<text x="35.00" y="606.00" font-family="Arial, sans-serif" font-size="12" font-weight="normal" fill="#0f172a">FTNT</text>
<rect x="145" y="593.00" width="411.28" height="14" fill="#dc2626" />
<text x="564.28" y="605.00" font-family="Arial, sans-serif" font-size="11" font-weight="normal" fill="#0f172a">3.92%</text>
<text x="35.00" y="628.00" font-family="Arial, sans-serif" font-size="12" font-weight="normal" fill="#0f172a">KLAC</text>
<rect x="145" y="615.00" width="418.30" height="14" fill="#dc2626" />
<text x="571.30" y="627.00" font-family="Arial, sans-serif" font-size="11" font-weight="normal" fill="#0f172a">3.99%</text>
<text x="35.00" y="650.00" font-family="Arial, sans-serif" font-size="12" font-weight="normal" fill="#0f172a">BKNG</text>
<rect x="145" y="637.00" width="423.52" height="14" fill="#dc2626" />
<text x="576.52" y="649.00" font-family="Arial, sans-serif" font-size="11" font-weight="normal" fill="#0f172a">4.04%</text>
<text x="35.00" y="672.00" font-family="Arial, sans-serif" font-size="12" font-weight="normal" fill="#0f172a">AMAT</text>
<rect x="145" y="659.00" width="427.80" height="14" fill="#dc2626" />
<text x="580.80" y="671.00" font-family="Arial, sans-serif" font-size="11" font-weight="normal" fill="#0f172a">4.08%</text>
<text x="35.00" y="694.00" font-family="Arial, sans-serif" font-size="12" font-weight="normal" fill="#0f172a">AMZN</text>
<rect x="145" y="681.00" width="428.46" height="14" fill="#dc2626" />
<text x="581.46" y="693.00" font-family="Arial, sans-serif" font-size="11" font-weight="normal" fill="#0f172a">4.09%</text>
<text x="35.00" y="716.00" font-family="Arial, sans-serif" font-size="12" font-weight="normal" fill="#0f172a">ASML</text>
<rect x="145" y="703.00" width="431.55" height="14" fill="#dc2626" />
<text x="584.55" y="715.00" font-family="Arial, sans-serif" font-size="11" font-weight="normal" fill="#0f172a">4.12%</text>
<text x="35.00" y="738.00" font-family="Arial, sans-serif" font-size="12" font-weight="normal" fill="#0f172a">ISRG</text>
<rect x="145" y="725.00" width="439.48" height="14" fill="#dc2626" />
<text x="592.48" y="737.00" font-family="Arial, sans-serif" font-size="11" font-weight="normal" fill="#0f172a">4.19%</text>
<text x="35.00" y="760.00" font-family="Arial, sans-serif" font-size="12" font-weight="normal" fill="#0f172a">STX</text>
<rect x="145" y="747.00" width="455.73" height="14" fill="#dc2626" />
<text x="608.73" y="759.00" font-family="Arial, sans-serif" font-size="11" font-weight="normal" fill="#0f172a">4.35%</text>
<text x="35.00" y="782.00" font-family="Arial, sans-serif" font-size="12" font-weight="normal" fill="#0f172a">CEG</text>
<rect x="145" y="769.00" width="466.47" height="14" fill="#dc2626" />
<text x="619.47" y="781.00" font-family="Arial, sans-serif" font-size="11" font-weight="normal" fill="#0f172a">4.45%</text>
<text x="35.00" y="804.00" font-family="Arial, sans-serif" font-size="12" font-weight="normal" fill="#0f172a">VRTX</text>
<rect x="145" y="791.00" width="468.53" height="14" fill="#dc2626" />
<text x="621.53" y="803.00" font-family="Arial, sans-serif" font-size="11" font-weight="normal" fill="#0f172a">4.47%</text>
<text x="35.00" y="826.00" font-family="Arial, sans-serif" font-size="12" font-weight="normal" fill="#0f172a">LRCX</text>
<rect x="145" y="813.00" width="481.79" height="14" fill="#dc2626" />
<text x="634.79" y="825.00" font-family="Arial, sans-serif" font-size="11" font-weight="normal" fill="#0f172a">4.59%</text>
<text x="35.00" y="848.00" font-family="Arial, sans-serif" font-size="12" font-weight="normal" fill="#0f172a">NFLX</text>
<rect x="145" y="835.00" width="530.28" height="14" fill="#dc2626" />
<text x="683.28" y="847.00" font-family="Arial, sans-serif" font-size="11" font-weight="normal" fill="#0f172a">5.06%</text>
<text x="35.00" y="870.00" font-family="Arial, sans-serif" font-size="12" font-weight="normal" fill="#0f172a">WDC</text>
<rect x="145" y="857.00" width="533.36" height="14" fill="#dc2626" />
<text x="686.36" y="869.00" font-family="Arial, sans-serif" font-size="11" font-weight="normal" fill="#0f172a">5.09%</text>
<text x="35.00" y="892.00" font-family="Arial, sans-serif" font-size="12" font-weight="normal" fill="#0f172a">MRVL</text>
<rect x="145" y="879.00" width="539.38" height="14" fill="#dc2626" />
<text x="692.38" y="891.00" font-family="Arial, sans-serif" font-size="11" font-weight="normal" fill="#0f172a">5.14%</text>
<text x="35.00" y="914.00" font-family="Arial, sans-serif" font-size="12" font-weight="normal" fill="#0f172a">NVDA</text>
<rect x="145" y="901.00" width="558.27" height="14" fill="#dc2626" />
<text x="711.27" y="913.00" font-family="Arial, sans-serif" font-size="11" font-weight="normal" fill="#0f172a">5.32%</text>
<text x="35.00" y="936.00" font-family="Arial, sans-serif" font-size="12" font-weight="normal" fill="#0f172a">SNDK</text>
<rect x="145" y="923.00" width="561.52" height="14" fill="#dc2626" />
<text x="714.52" y="935.00" font-family="Arial, sans-serif" font-size="11" font-weight="normal" fill="#0f172a">5.36%</text>
<text x="35.00" y="958.00" font-family="Arial, sans-serif" font-size="12" font-weight="normal" fill="#0f172a">PANW</text>
<rect x="145" y="945.00" width="574.05" height="14" fill="#dc2626" />
<text x="727.05" y="957.00" font-family="Arial, sans-serif" font-size="11" font-weight="normal" fill="#0f172a">5.47%</text>
<text x="35.00" y="980.00" font-family="Arial, sans-serif" font-size="12" font-weight="normal" fill="#0f172a">MU</text>
<rect x="145" y="967.00" width="580.56" height="14" fill="#dc2626" />
<text x="733.56" y="979.00" font-family="Arial, sans-serif" font-size="11" font-weight="normal" fill="#0f172a">5.54%</text>
<text x="35.00" y="1002.00" font-family="Arial, sans-serif" font-size="12" font-weight="normal" fill="#0f172a">TSLA</text>
<rect x="145" y="989.00" width="602.57" height="14" fill="#dc2626" />
<text x="755.57" y="1001.00" font-family="Arial, sans-serif" font-size="11" font-weight="normal" fill="#0f172a">5.75%</text>
<text x="35.00" y="1024.00" font-family="Arial, sans-serif" font-size="12" font-weight="normal" fill="#0f172a">SHOP</text>
<rect x="145" y="1011.00" width="604.84" height="14" fill="#dc2626" />
<text x="757.84" y="1023.00" font-family="Arial, sans-serif" font-size="11" font-weight="normal" fill="#0f172a">5.77%</text>
<text x="35.00" y="1046.00" font-family="Arial, sans-serif" font-size="12" font-weight="normal" fill="#0f172a">CRWD</text>
<rect x="145" y="1033.00" width="611.10" height="14" fill="#dc2626" />
<text x="764.10" y="1045.00" font-family="Arial, sans-serif" font-size="11" font-weight="normal" fill="#0f172a">5.83%</text>
<text x="35.00" y="1068.00" font-family="Arial, sans-serif" font-size="12" font-weight="normal" fill="#0f172a">PLTR</text>
<rect x="145" y="1055.00" width="630.61" height="14" fill="#dc2626" />
<text x="783.61" y="1067.00" font-family="Arial, sans-serif" font-size="11" font-weight="normal" fill="#0f172a">6.01%</text>
<text x="35.00" y="1090.00" font-family="Arial, sans-serif" font-size="12" font-weight="normal" fill="#0f172a">AMD</text>
<rect x="145" y="1077.00" width="639.31" height="14" fill="#dc2626" />
<text x="792.31" y="1089.00" font-family="Arial, sans-serif" font-size="11" font-weight="normal" fill="#0f172a">6.10%</text>
<text x="35.00" y="1112.00" font-family="Arial, sans-serif" font-size="12" font-weight="normal" fill="#0f172a">PDD</text>
<rect x="145" y="1099.00" width="679.26" height="14" fill="#dc2626" />
<text x="832.26" y="1111.00" font-family="Arial, sans-serif" font-size="11" font-weight="normal" fill="#0f172a">6.48%</text>
<text x="35.00" y="1134.00" font-family="Arial, sans-serif" font-size="12" font-weight="normal" fill="#0f172a">ARM</text>
<rect x="145" y="1121.00" width="687.78" height="14" fill="#dc2626" />
<text x="840.78" y="1133.00" font-family="Arial, sans-serif" font-size="11" font-weight="normal" fill="#0f172a">6.56%</text>
<text x="35.00" y="1156.00" font-family="Arial, sans-serif" font-size="12" font-weight="normal" fill="#0f172a">APP</text>
<rect x="145" y="1143.00" width="780.00" height="14" fill="#dc2626" />
<text x="933.00" y="1155.00" font-family="Arial, sans-serif" font-size="11" font-weight="normal" fill="#0f172a">7.44%</text>
</svg>