<svg xmlns="http://www.w3.org/2000/svg" width="1100" height="650" viewBox="0 0 1100 650" role="img" aria-label="Drawdown viitor mediu in timp"><rect width="100%" height="100%" fill="#ffffff" />
<line x1="90" y1="500" x2="950" y2="500" stroke="#334155" /><line x1="90" y1="70" x2="90" y2="500" stroke="#334155" /><line x1="90" y1="70" x2="950" y2="70" stroke="#e2e8f0" /><line x1="950" y1="70" x2="950" y2="500" stroke="#e2e8f0" />
<text x="35.00" y="42.00" font-family="Arial, sans-serif" font-size="24" font-weight="bold" fill="#0f172a">Drawdown viitor mediu in timp</text>
<text x="90.00" y="546.00" font-family="Arial, sans-serif" font-size="13" font-weight="normal" fill="#0f172a">2001-03-26</text>
<text x="865.00" y="546.00" font-family="Arial, sans-serif" font-size="13" font-weight="normal" fill="#0f172a">2026-04-13</text>
<text x="20.00" y="80.00" font-family="Arial, sans-serif" font-size="12" font-weight="normal" fill="#0f172a">26.57%</text>
<text x="20.00" y="500.00" font-family="Arial, sans-serif" font-size="12" font-weight="normal" fill="#0f172a">0.00%</text>
<text x="405.00" y="616.00" font-family="Arial, sans-serif" font-size="14" font-weight="normal" fill="#0f172a">Data observatiei</text>
<polyline fill="none" stroke="#7c3aed" stroke-width="1.8" points="90.00,188.07 90.09,161.18 90.19,226.59 90.28,239.35 90.38,247.04 90.66,336.58 90.75,410.60 90.85,467.17 90.94,385.89 91.03,457.45 91.32,483.11 91.41,472.86 91.50,458.43 91.60,413.03 91.69,412.09 92.07,469.65 92.16,397.02 92.26,343.73 92.35,368.05 92.63,427.15 92.73,456.33 92.82,421.61 92.91,440.62 93.01,418.63 93.29,376.76 93.38,350.50 93.48,349.23 93.57,395.93 93.67,375.55 93.95,384.14 94.04,383.14 94.14,437.82 94.23,453.22 94.32,464.87 94.61,487.65 94.70,483.25 94.79,393.49 94.89,365.77 94.98,371.27 95.26,306.31 95.36,311.69 95.45,359.01 95.55,340.19 95.64,350.44 95.92,340.15 96.11,459.55 96.20,429.74 96.30,388.54 96.58,379.01 96.67,314.09 96.77,320.45 96.86,263.00 96.96,286.88 97.24,324.30 97.33,330.97 97.43,357.11 97.52,417.87 97.61,415.16 97.90,433.29 97.99,447.99 98.08,453.99 98.18,443.18 98.27,422.25 98.55,412.80 98.65,379.30 98.74,374.96 98.84,334.27 98.93,322.24 99.21,307.11 99.31,300.75 99.40,293.00 99.59,403.88 99.87,379.12 99.96,401.35 100.06,399.68 100.15,324.57 100.25,311.57 100.53,321.11 100.62,344.52 100.72,393.24 100.81,357.84 100.90,360.77 101.19,398.89 101.28,445.56 101.37,439.61 101.47,413.17 101.56,409.76 101.84,413.96 101.94,412.05 102.03,359.28 102.13,336.89 102.22,330.38 102.50,350.96 102.60,351.08 102.69,399.34 102.78,395.95 102.88,400.53 103.16,371.62 103.25,385.83 103.35,414.20 103.44,383.23 103.54,430.55 103.82,412.46 103.91,438.06 104.01,375.92 104.10,333.94 104.19,257.70 104.48,232.54 104.57,264.86 104.66,294.06 104.76,331.78 104.85,326.86 105.13,232.86 105.32,180.73 105.42,182.54 105.51,149.38 105.79,141.37 105.89,138.28 106.54,239.91 106.64,272.63 106.73,332.64 106.83,380.15 107.11,341.14 107.20,340.19 107.30,417.09 107.39,459.34 107.48,429.67 107.77,463.39 107.86,483.49 107.95,458.57 108.05,451.80 108.14,454.49 108.42,433.50 108.52,495.25 108.61,463.22 108.71,391.19 108.80,387.16 109.08,406.47 109.18,363.46 109.27,442.90 109.36,462.46 109.46,458.13 109.74,421.06 109.83,425.27 109.93,387.12 110.02,348.18 110.12,354.83 110.40,432.36 110.49,484.55 110.59,489.70 110.68,488.05 110.77,490.60 111.06,482.43 111.15,451.60 111.24,445.00 111.34,464.51 111.43,461.24 111.71,447.45 111.81,409.29 111.90,402.59 112.00,420.93 112.09,427.77 112.37,406.31 112.47,477.95 112.56,482.96 112.65,482.96 113.03,413.24 113.12,420.77 113.22,480.30 113.31,446.42 113.41,446.93 113.69,470.08 113.78,435.68 113.88,357.96 113.97,330.51 114.06,349.43 114.35,377.93 114.44,371.74 114.53,361.39 114.63,374.98 114.72,356.40 115.00,334.06 115.10,330.07 115.19,367.86 115.29,427.26 115.38,417.25 115.66,425.12 115.76,425.07 115.94,450.12 116.04,438.80 116.32,449.55 116.41,447.23 116.60,377.23 116.70,359.35 116.98,373.58 117.07,338.07 117.17,342.49 117.26,348.04 117.35,354.38 117.64,378.33 117.73,366.66 117.82,426.65 117.92,399.10 118.01,436.16 118.29,425.25 118.48,405.64 118.58,379.24 118.67,361.00 118.95,354.17 119.05,400.57 119.14,389.55 119.23,375.26 119.33,379.43 119.61,411.84 119.70,406.18 119.80,414.63 119.89,423.10 119.99,405.29 120.27,359.94 120.36,359.21 120.46,324.31 120.55,330.55 120.64,364.47 120.93,364.47 121.11,388.47 121.21,469.35 121.30,470.34 121.58,436.48 121.68,439.36 121.77,460.64 121.87,493.90 121.96,463.27 122.24,422.77 122.34,426.60 122.43,414.94 122.52,420.51 122.62,383.37 122.90,387.63 122.99,416.16 123.09,448.66 123.18,465.59 123.28,438.11 123.56,419.74 123.65,406.70 123.75,442.22 123.84,405.60 123.93,409.76 124.22,452.01 124.31,401.22 124.40,407.13 124.50,373.82 124.59,372.79 124.97,394.53 125.06,416.62 125.16,406.59 125.25,425.94 125.53,409.25 125.63,444.41 125.72,398.51 125.81,420.77 125.91,356.45 126.19,326.80 126.28,276.19 126.38,266.56 126.47,277.65 126.57,259.07 126.85,258.79 126.94,265.33 127.04,289.87 127.13,295.49 127.22,354.45 127.51,356.40 127.60,334.22 127.69,334.42 127.79,375.73 127.88,425.50 128.16,470.16 128.26,489.55 128.35,396.45 128.45,441.03 128.54,487.29 128.82,464.65 128.92,381.81 129.01,357.00 129.10,347.50 129.20,337.60 129.48,326.12 129.57,365.56 129.67,355.55 129.76,315.13 129.86,338.77 130.14,325.88 130.33,299.14 130.42,290.04 130.51,287.71 130.80,340.13 130.89,315.80 130.98,280.30 131.08,291.54 131.17,280.82 131.45,287.97 131.55,327.59 131.64,301.53 131.74,310.70 131.83,313.05 132.11,229.82 132.21,197.91 132.30,271.54 132.39,320.20 132.49,359.12 132.77,310.99 132.86,363.65 132.96,351.32 133.05,329.20 133.15,326.30 133.43,393.52 133.52,447.20 133.62,421.24 133.71,402.95 134.09,319.36 134.18,309.32 134.27,359.68 134.37,243.32 134.46,231.57 134.74,208.90 134.84,226.73 134.93,191.71 135.03,232.12 135.12,236.46 135.40,243.94 135.50,302.71 135.59,254.14 135.68,366.30 135.78,357.99 136.06,277.34 136.15,253.58 136.25,301.29 136.34,393.18 136.44,433.05 136.72,500.00 136.81,481.72 136.91,476.34 137.00,428.37 137.09,449.49 137.38,450.92 137.47,491.66 137.56,430.05 137.66,415.49 137.75,362.96 138.03,309.37 138.13,297.08 138.22,255.59 138.32,228.90 138.41,265.82 138.69,264.85 138.79,339.75 138.88,388.53 138.97,364.42 139.07,384.89 139.35,375.59 139.54,392.52 139.63,416.00 139.73,347.92 140.01,300.90 140.10,248.24 140.20,245.19 140.29,297.45 140.38,289.99 140.67,308.37 140.76,332.94 140.85,324.77 140.95,342.50 141.04,327.53 141.32,342.52 141.42,330.44 141.51,254.78 141.61,252.44 141.70,283.44 141.98,312.95 142.08,261.67 142.17,282.80 142.26,339.51 142.36,388.79 142.64,437.79 142.73,439.87 142.83,478.03 142.92,465.94 143.02,445.97 143.30,445.53 143.39,364.42 143.49,467.40 143.58,451.77 143.67,427.44 143.96,396.60 144.05,455.53 144.14,428.38 144.24,452.88 144.33,429.50 144.61,425.76 144.71,451.39 144.80,413.59 144.90,418.09 144.99,372.43 145.27,325.00 145.37,344.71 145.46,321.01 145.55,391.16 145.65,421.56 145.93,484.46 146.02,474.59 146.12,482.21 146.21,445.92 146.31,448.27 146.59,451.39 146.68,494.82 146.78,458.69 146.87,378.72 146.96,379.93 147.25,292.75 147.34,344.72 147.43,279.02 147.53,276.48 147.90,269.00 148.00,322.28 148.09,335.14 148.19,338.30 148.28,332.54 148.56,408.79 148.66,355.46 148.75,357.58 148.84,355.01 148.94,393.44 149.22,334.17 149.31,338.47 149.41,420.75 149.50,439.95 149.60,427.74 149.88,406.51 149.97,418.96 150.07,415.36 150.25,461.86 150.54,483.49 150.63,491.24 150.72,486.58 150.91,427.31 151.19,382.55 151.29,362.03 151.38,404.49 151.48,369.25 151.57,329.65 151.85,324.74 151.95,316.19 152.04,351.48 152.13,353.22 152.23,409.09 152.51,403.73 152.70,418.43 152.79,378.44 152.89,406.42 153.17,432.22 153.26,400.43 153.36,366.37 153.45,391.67 153.54,396.67 153.83,400.89 153.92,417.76 154.01,421.57 154.11,428.22 154.20,447.64 154.48,431.39 154.58,435.69 154.67,449.49 154.77,472.63 154.86,463.10 155.14,462.10 155.33,422.11 155.42,413.49 155.52,403.69 155.80,413.59 155.89,409.07 155.99,437.36 156.08,407.10 156.18,381.96 156.46,414.72 156.55,429.06 156.65,419.33 156.74,434.26 156.83,447.98 157.12,469.74 157.21,472.48 157.30,487.09 157.40,473.68 157.49,493.97 157.77,427.49 157.87,406.76 157.96,399.74 158.06,397.85 158.15,370.39 158.43,440.26 158.53,414.77 158.62,409.86 158.71,403.07 158.81,411.43 159.09,462.42 159.18,460.15 159.28,401.75 159.37,393.47 159.47,421.59 159.75,405.93 159.84,437.32 159.94,466.57 160.03,460.87 160.12,477.19 160.41,470.04 160.50,471.29 160.59,476.45 160.69,459.38 160.78,459.38 161.16,429.13 161.25,428.84 161.35,437.52 161.44,488.10 161.72,479.39 161.82,471.93 161.91,489.15 162.00,483.82 162.10,466.54 162.38,434.94 162.47,417.92 162.57,440.88 162.66,463.88 162.76,431.96 163.04,411.66 163.13,413.31 163.23,421.47 163.32,406.53 163.41,418.16 163.70,481.95 163.79,490.73 163.88,493.76 163.98,485.84 164.07,491.65 164.35,487.02 164.54,461.90 164.64,450.69 164.73,411.69 165.01,427.49 165.11,415.29 165.20,393.73 165.29,370.40 165.39,399.56 165.67,428.45 165.76,406.78 165.86,405.03 165.95,401.76 166.05,453.67 166.33,420.92 166.42,415.72 166.52,402.59 166.61,425.27 166.70,437.24 166.99,467.22 167.08,482.81 167.17,484.66 167.27,463.88 167.36,478.09 167.64,488.43 167.74,489.49 167.83,463.98 167.93,466.69 168.02,455.00 168.40,395.84 168.49,392.91 168.58,429.07 168.68,415.18 168.96,387.75 169.05,384.75 169.15,394.86 169.24,441.29 169.34,444.86 169.62,471.18 169.71,430.84 169.81,388.41 169.90,404.50 169.99,365.55 170.28,357.09 170.37,377.12 170.46,384.03 170.56,368.18 170.65,375.12 170.93,369.46 171.03,425.58 171.12,449.81 171.22,456.01 171.31,495.51 171.59,488.84 171.69,478.07 171.78,478.45 171.87,481.72 171.97,490.33 172.25,484.51 172.34,478.93 172.44,483.29 172.53,470.31 172.63,482.00 172.91,491.12 173.00,493.47 173.10,464.18 173.19,457.13 173.28,449.93 173.57,446.68 173.75,455.88 173.85,443.00 173.94,433.53 174.22,392.08 174.32,406.66 174.41,450.99 174.51,427.17 174.60,398.41 174.88,413.86 174.98,381.81 175.07,382.22 175.16,364.75 175.26,367.05 175.54,395.92 175.63,369.25 175.73,431.15 175.82,456.04 175.92,480.88 176.20,466.81 176.29,495.45 176.39,491.11 176.48,490.68 176.57,476.40 176.86,475.27 176.95,462.56 177.04,464.78 177.14,445.76 177.23,437.58 177.51,424.34 177.61,417.83 177.70,419.05 177.80,412.26 177.89,441.93 178.17,430.16 178.27,405.03 178.36,459.11 178.45,475.21 178.55,473.77 178.83,466.85 178.92,416.77 179.02,419.67 179.11,424.40 179.21,428.48 179.49,385.06 179.58,374.76 179.68,368.99 179.77,353.38 179.86,362.36 180.15,392.06 180.24,419.43 180.33,377.48 180.43,389.45 180.52,431.18 180.80,451.55 180.90,476.08 180.99,462.25 181.09,488.70 181.18,486.22 181.46,452.78 181.56,420.15 181.65,410.57 181.74,410.57 182.12,375.78 182.21,385.69 182.31,403.40 182.40,404.14 182.50,431.01 182.78,431.16 182.87,477.47 182.97,481.62 183.06,444.72 183.15,439.32 183.44,479.09 183.53,481.90 183.62,493.53 183.72,479.38 183.81,492.23 184.09,494.15 184.19,485.86 184.28,490.73 184.38,487.11 184.75,466.23 184.85,470.65 184.94,479.11 185.03,479.11 185.41,480.38 185.50,476.85 185.60,463.22 185.69,440.80 185.79,435.48 186.07,422.87 186.16,432.08 186.26,424.72 186.35,404.87 186.44,382.30 186.73,376.96 186.91,367.36 187.01,383.77 187.10,392.71 187.38,378.74 187.48,411.95 187.57,429.48 187.67,444.94 187.76,443.31 188.04,452.96 188.14,455.06 188.23,492.76 188.32,488.08 188.42,457.74 188.70,439.90 188.79,418.77 188.89,399.72 188.98,414.68 189.08,425.23 189.36,425.23 189.55,402.26 189.64,427.41 189.73,441.19 190.02,462.65 190.11,468.32 190.20,437.10 190.30,411.89 190.39,418.80 190.67,392.87 190.77,397.20 190.86,410.46 190.96,388.57 191.05,380.99 191.33,408.46 191.43,406.31 191.52,423.84 191.61,441.69 191.71,408.72 191.99,450.84 192.08,444.18 192.18,420.54 192.27,429.57 192.37,452.80 192.65,480.56 192.74,493.60 192.84,495.59 192.93,481.08 193.02,496.54 193.31,487.16 193.40,481.45 193.49,486.23 193.59,458.81 193.68,397.50 193.96,383.28 194.06,389.64 194.15,393.00 194.25,372.08 194.34,371.54 194.72,375.77 194.81,366.82 194.90,364.18 195.00,368.58 195.28,345.43 195.37,391.81 195.47,382.87 195.56,376.80 195.66,358.54 195.94,376.00 196.03,383.89 196.13,413.57 196.22,445.17 196.31,472.21 196.60,461.82 196.69,450.30 196.78,438.87 196.88,450.11 196.97,454.97 197.25,458.74 197.35,430.63 197.44,442.61 197.54,449.12 197.63,470.28 197.91,492.24 198.01,485.82 198.10,485.36 198.19,492.85 198.29,493.16 198.57,493.40 198.66,480.45 198.76,466.45 198.85,455.48 198.95,447.19 199.23,438.71 199.42,452.09 199.51,470.99 199.60,448.27 199.89,405.07 199.98,405.40 200.07,438.68 200.17,434.19 200.26,432.08 200.64,441.00 200.73,446.72 200.83,470.39 200.92,460.53 201.20,481.49 201.30,449.47 201.39,423.01 201.48,419.92 201.58,411.48 201.86,413.82 201.95,387.22 202.05,340.73 202.14,362.52 202.24,353.46 202.52,342.42 202.71,340.84 202.80,363.34 202.89,338.49 203.18,339.24 203.27,338.66 203.36,373.27 203.46,373.39 203.55,406.20 203.83,413.61 203.93,379.72 204.02,433.50 204.12,395.32 204.21,397.92 204.49,408.46 204.59,381.46 204.68,376.00 204.77,321.99 204.87,313.49 205.15,317.31 205.24,352.81 205.34,348.18 205.43,370.73 205.53,434.62 205.81,441.33 205.90,413.79 206.00,451.42 206.09,491.71 206.18,497.84 206.47,491.56 206.56,485.50 206.65,458.48 206.75,469.75 206.84,437.03 207.12,431.83 207.22,449.75 207.31,426.86 207.41,441.29 207.50,430.88 207.78,463.89 207.88,469.81 207.97,456.06 208.06,438.98 208.16,481.15 208.44,481.03 208.63,488.81 208.72,486.81 208.82,465.65 209.10,441.71 209.19,424.75 209.29,455.29 209.38,443.63 209.47,428.66 209.76,416.06 209.85,398.69 209.94,439.53 210.04,437.54 210.13,462.59 210.41,484.86 210.51,488.36 210.60,482.07 210.70,475.78 210.79,421.12 211.07,397.71 211.17,391.42 211.26,373.03 211.35,385.70 211.45,404.29 211.73,395.90 211.82,404.33 211.92,401.06 212.01,423.16 212.11,448.45 212.39,437.33 212.48,444.96 212.58,440.18 212.67,432.48 212.76,482.96 213.05,485.42 213.14,496.45 213.23,475.98 213.33,471.63 213.42,474.25 213.70,471.37 213.80,473.27 213.89,474.20 213.99,472.48 214.08,457.41 214.36,459.64 214.46,461.28 214.55,480.08 214.64,465.21 214.74,451.77 215.02,445.83 215.11,461.84 215.21,445.90 215.30,437.01 215.40,475.20 215.68,472.70 215.77,476.98 215.87,462.63 215.96,461.44 216.34,467.91 216.43,476.75 216.52,455.60 216.62,453.22 216.71,437.54 216.99,427.83 217.09,463.75 217.18,470.20 217.28,475.63 217.37,481.23 217.65,464.91 217.75,448.98 217.84,445.27 217.93,457.95 218.03,471.34 218.31,483.79 218.40,451.45 218.50,436.36 218.59,426.54 218.69,424.42 219.06,390.95 219.16,378.62 219.25,373.26 219.34,375.13 219.63,395.78 219.72,436.35 219.81,447.34 219.91,447.55 220.00,425.41 220.28,403.18 220.38,434.58 220.47,419.06 220.57,433.14 220.66,412.90 220.94,412.90 221.13,428.74 221.22,435.24 221.32,452.38 221.60,481.43 221.69,477.52 221.79,465.57 221.88,463.90 221.98,473.11 222.26,463.00 222.35,458.43 222.45,455.83 222.54,473.31 222.63,449.23 222.92,463.45 223.01,444.49 223.10,467.03 223.20,468.15 223.29,449.60 223.57,448.02 223.67,438.14 223.76,440.88 223.86,455.83 223.95,457.97 224.23,296.11 224.42,461.84 224.51,430.28 224.61,409.16 224.89,416.59 224.98,393.80 225.17,417.21 225.27,415.35 225.55,400.51 225.64,416.73 225.74,425.28 225.83,420.09 225.92,446.45 226.21,434.11 226.30,449.34 226.39,465.49 226.49,461.95 226.58,462.28 226.86,460.72 226.96,470.76 227.05,458.16 227.15,455.68 227.24,299.08 227.62,471.23 227.71,425.84 227.80,423.03 227.90,407.79 228.18,403.87 228.27,399.99 228.37,386.00 228.46,364.74 228.56,357.83 228.84,366.33 228.93,361.99 229.03,394.80 229.12,414.81 229.21,454.61 229.50,462.47 229.59,447.78 229.68,467.90 229.78,422.19 229.87,463.10 230.15,446.44 230.25,467.71 230.34,475.77 230.44,491.55 230.53,487.27 230.81,489.25 230.91,490.93 231.00,481.17 231.09,486.16 231.19,480.46 231.47,476.63 231.56,489.30 231.66,488.08 231.75,495.46 231.85,496.94 232.13,493.56 232.22,494.43 232.32,486.39 232.41,485.66 232.50,479.70 232.79,479.85 232.88,472.45 232.97,478.55 233.07,460.47 233.16,457.30 233.44,329.09 233.63,452.82 233.72,434.86 233.82,455.92 234.10,456.27 234.19,462.81 234.29,466.01 234.38,439.45 234.48,446.63 234.76,433.86 234.85,445.00 234.95,442.36 235.04,426.89 235.13,428.93 235.42,429.56 235.51,426.29 235.60,426.42 235.70,438.21 235.79,463.01 236.07,478.89 236.17,471.05 236.26,478.99 236.36,488.90 236.45,491.10 236.73,491.10 237.01,491.68 237.11,482.55 237.39,467.92 237.48,466.20 237.58,467.05 237.67,462.30 237.77,461.72 238.05,468.26 238.14,451.25 238.24,435.22 238.33,449.15 238.42,458.13 238.71,470.20 238.80,458.71 238.89,447.34 238.99,437.54 239.08,447.34 239.36,445.45 239.46,424.75 239.55,429.53 239.65,450.12 239.74,454.19 240.02,462.40 240.12,454.48 240.21,472.67 240.30,455.61 240.40,454.68 240.68,440.82 240.77,468.43 240.87,455.98 240.96,467.47 241.06,463.92 241.34,460.75 241.43,464.72 241.53,472.86 241.62,470.30 241.71,485.41 242.00,473.02 242.09,481.99 242.18,465.70 242.28,481.87 242.37,486.53 242.65,356.18 242.84,454.23 242.94,443.73 243.03,431.29 243.31,426.49 243.41,420.75 243.50,439.25 243.59,443.26 243.69,434.98 243.97,450.45 244.06,461.17 244.16,471.36 244.25,470.35 244.35,464.08 244.63,455.27 244.72,456.85 244.82,439.67 244.91,421.74 245.00,400.72 245.29,386.84 245.38,399.64 245.47,429.51 245.57,445.65 245.66,436.30 245.94,449.31 246.04,459.04 246.13,475.82 246.23,456.78 246.32,449.00 246.60,445.28 246.70,451.96 246.79,437.88 246.88,455.17 246.98,449.72 247.26,429.02 247.35,434.38 247.45,453.75 247.54,485.79 247.64,490.17 247.92,485.05 248.01,496.76 248.11,492.58 248.20,482.93 248.29,482.18 248.58,482.58 248.67,487.80 248.76,485.05 248.86,477.47 248.95,476.24 249.23,477.87 249.33,484.74 249.42,485.94 249.52,474.18 249.61,469.14 249.89,466.94 249.99,453.22 250.08,455.39 250.17,354.93 250.55,457.33 250.64,471.86 250.74,470.60 250.83,447.22 250.93,439.09 251.21,443.57 251.30,437.75 251.40,445.30 251.49,462.14 251.58,459.61 251.87,453.92 251.96,450.53 252.05,457.39 252.15,456.24 252.24,454.78 252.52,477.63 252.62,478.05 252.71,469.87 252.81,453.81 252.90,455.03 253.18,357.64 253.37,464.35 253.46,476.47 253.56,488.96 253.84,488.96 254.03,476.05 254.12,471.80 254.22,445.82 254.50,434.04 254.59,427.03 254.69,409.24 254.78,413.85 254.87,419.63 255.16,419.63 255.34,443.25 255.44,420.44 255.53,458.38 255.81,451.52 255.91,438.12 256.00,439.06 256.10,422.73 256.19,407.55 256.47,403.46 256.57,408.98 256.66,407.32 256.75,430.16 256.85,450.29 257.13,453.66 257.22,456.48 257.32,446.20 257.41,448.57 257.51,442.14 257.79,462.41 257.88,448.83 257.98,444.71 258.07,433.99 258.16,449.95 258.45,446.63 258.63,435.61 258.73,432.59 258.82,421.37 259.10,408.95 259.20,428.53 259.29,399.54 259.39,395.36 259.48,403.45 259.76,418.45 259.86,445.76 259.95,452.79 260.04,469.56 260.14,473.41 260.42,474.33 260.51,444.25 260.61,436.23 260.70,466.93 260.80,460.55 261.08,455.04 261.17,470.36 261.27,470.96 261.36,473.92 261.45,458.81 261.74,458.05 261.83,475.77 261.92,461.94 262.02,458.52 262.11,464.08 262.39,457.65 262.49,453.60 262.58,437.01 262.68,431.65 262.77,451.05 263.05,454.52 263.15,470.15 263.24,463.29 263.33,460.57 263.43,453.39 263.80,441.04 263.90,422.15 263.99,417.32 264.09,433.92 264.37,436.37 264.46,440.76 264.56,449.51 264.65,427.57 264.74,419.97 265.03,422.41 265.12,411.36 265.21,391.63 265.31,356.99 265.40,343.19 265.68,341.15 265.78,330.16 265.87,347.07 265.97,384.06 266.06,402.43 266.34,407.20 266.44,405.41 266.53,430.88 266.62,452.90 266.72,420.39 267.00,439.78 267.09,462.76 267.19,442.34 267.28,424.45 267.38,412.46 267.66,391.51 267.85,403.56 267.94,371.99 268.03,375.97 268.32,414.95 268.41,414.74 268.50,431.24 268.60,431.98 268.69,439.44 268.97,472.43 269.07,474.68 269.16,456.09 269.26,415.22 269.35,430.93 269.63,449.47 269.73,457.95 269.82,433.51 269.91,448.31 270.01,452.74 270.29,431.54 270.38,459.76 270.48,443.58 270.57,386.61 270.67,375.34 270.95,350.66 271.04,350.10 271.23,348.78 271.32,365.17 271.61,378.56 271.70,341.24 271.79,366.74 271.89,391.15 271.98,402.06 272.36,402.14 272.45,368.18 272.55,402.18 272.64,442.99 272.92,430.94 273.02,437.66 273.11,453.49 273.20,468.87 273.30,420.75 273.58,422.58 273.67,451.09 273.77,441.77 273.86,434.79 273.96,442.44 274.24,453.25 274.33,463.87 274.43,471.96 274.52,462.32 274.61,489.42 274.90,490.94 274.99,472.87 275.08,445.47 275.18,442.70 275.27,443.39 275.55,465.35 275.65,470.95 275.74,479.96 275.84,476.38 275.93,480.26 276.21,474.40 276.31,468.15 276.40,455.08 276.49,457.95 276.59,451.99 276.87,451.39 277.06,474.20 277.15,489.61 277.25,486.22 277.53,482.60 277.62,463.82 277.72,461.80 277.81,465.73 277.90,465.29 278.19,452.75 278.28,454.44 278.37,436.59 278.47,454.93 278.56,462.72 278.84,439.50 278.94,437.71 279.03,435.21 279.13,434.73 279.22,445.02 279.50,467.77 279.60,480.19 279.69,464.05 279.78,454.82 279.88,461.24 280.16,452.20 280.25,456.12 280.35,452.37 280.44,436.33 280.54,419.97 280.82,415.23 280.91,439.31 281.01,458.16 281.10,462.41 281.19,467.37 281.48,459.81 281.57,472.16 281.66,458.56 281.76,437.68 281.85,468.05 282.13,458.51 282.23,452.65 282.32,477.58 282.42,482.57 282.51,489.20 282.79,478.06 282.89,469.99 282.98,472.06 283.07,493.23 283.17,485.40 283.45,483.32 283.54,465.08 283.64,453.21 283.73,441.90 283.83,448.98 284.11,439.76 284.20,444.29 284.39,425.55 284.77,467.33 284.86,456.45 284.95,448.28 285.05,450.45 285.14,467.73 285.42,445.99 285.52,437.66 285.61,434.24 285.71,446.14 285.80,440.82 286.08,441.91 286.18,453.94 286.27,463.05 286.36,447.03 286.46,441.21 286.74,454.13 286.83,460.13 286.93,452.71 287.02,465.76 287.12,470.40 287.40,461.44 287.59,444.26 287.68,449.55 287.77,451.79 288.06,451.79 288.34,431.41 288.43,444.86 288.71,446.99 288.81,436.68 288.90,417.39 289.00,404.68 289.09,397.04 289.37,392.85 289.56,402.26 289.65,448.92 289.75,445.39 290.03,452.91 290.12,461.02 290.22,440.47 290.31,459.63 290.41,458.05 290.69,457.20 290.78,456.12 290.88,455.16 290.97,458.58 291.06,454.47 291.35,461.10 291.44,462.48 291.53,448.42 291.63,451.89 291.72,477.95 292.00,485.79 292.10,466.56 292.19,447.74 292.29,439.59 292.38,422.77 292.66,405.10 292.85,395.10 292.94,381.49 293.04,377.68 293.32,380.41 293.41,428.13 293.51,421.89 293.60,433.34 293.70,458.58 293.98,475.55 294.07,454.30 294.17,463.72 294.26,457.65 294.35,455.23 294.64,447.25 294.73,482.65 294.82,473.18 294.92,470.32 295.01,476.50 295.29,474.21 295.39,473.16 295.48,447.91 295.58,456.16 295.67,457.53 295.95,451.38 296.05,459.32 296.14,473.57 296.23,480.01 296.33,481.02 296.61,486.14 296.70,478.48 296.80,471.80 296.89,464.05 296.99,464.04 297.36,465.97 297.46,483.01 297.55,476.34 297.64,484.22 297.93,475.91 298.02,474.36 298.11,479.43 298.21,479.91 298.30,469.07 298.58,476.88 298.68,468.75 298.77,461.40 298.87,445.28 298.96,454.69 299.24,471.90 299.34,463.90 299.43,456.44 299.52,449.07 299.62,442.94 299.90,446.42 299.99,449.37 300.09,433.86 300.18,456.95 300.28,440.21 300.56,444.64 300.65,458.25 300.75,452.07 300.84,462.14 300.93,456.95 301.22,452.94 301.31,446.04 301.40,458.45 301.50,470.27 301.59,466.43 301.87,418.75 302.06,458.90 302.16,449.80 302.25,443.14 302.53,437.61 302.63,439.00 302.72,449.06 302.81,468.38 302.91,447.63 303.19,458.01 303.28,469.39 303.38,462.30 303.47,461.51 303.57,454.17 303.85,457.25 303.94,460.66 304.04,474.19 304.13,455.49 304.22,471.98 304.51,486.31 304.60,496.34 304.69,478.28 304.79,486.14 304.88,493.55 305.16,489.60 305.26,488.39 305.35,469.56 305.54,479.41 305.82,467.80 305.92,465.24 306.01,465.57 306.10,436.58 306.20,420.35 306.48,420.82 306.57,397.54 306.67,406.30 306.76,390.91 306.86,386.99 307.14,390.72 307.23,414.42 307.33,401.55 307.42,410.34 307.51,430.98 307.80,412.90 307.89,432.61 307.98,409.21 308.08,396.55 308.17,433.83 308.45,412.19 308.55,410.76 308.64,385.44 308.74,413.27 308.83,419.75 309.11,419.56 309.21,437.93 309.30,471.78 309.39,486.04 309.49,472.75 309.77,470.08 309.86,468.15 309.96,457.05 310.05,464.20 310.15,449.64 310.43,457.89 310.52,493.91 310.62,476.05 310.71,478.69 310.80,457.91 311.09,453.83 311.27,442.58 311.37,435.04 311.46,465.46 311.74,465.68 311.84,452.43 311.93,465.63 312.03,467.24 312.12,474.82 312.40,488.13 312.50,471.00 312.59,476.44 312.68,480.17 312.78,480.60 313.06,484.77 313.15,478.30 313.25,471.48 313.34,466.44 313.44,472.57 313.72,454.84 313.81,453.91 313.91,473.19 314.00,469.72 314.09,447.44 314.38,442.15 314.47,440.78 314.56,426.18 314.66,432.82 314.75,414.47 315.03,423.28 315.13,428.23 315.22,409.91 315.32,409.11 315.41,439.30 315.69,415.09 315.79,406.72 315.88,422.35 315.97,433.71 316.07,401.21 316.35,363.09 316.44,355.31 316.54,336.19 316.63,359.99 316.73,350.27 317.01,355.66 317.10,330.13 317.20,351.15 317.29,383.18 317.38,415.27 317.67,431.94 317.76,396.77 317.85,405.30 317.95,411.82 318.04,405.31 318.32,433.10 318.42,442.01 318.51,465.21 318.61,465.21 318.98,483.73 319.08,475.82 319.17,454.69 319.26,450.83 319.36,454.04 319.64,440.53 319.73,443.39 319.83,416.55 319.92,394.93 320.02,398.95 320.30,393.88 320.39,430.12 320.49,419.46 320.58,423.40 320.67,437.51 320.96,474.99 321.05,473.68 321.14,453.83 321.24,419.51 321.33,345.00 321.61,318.40 321.71,282.35 321.90,297.44 321.99,288.41 322.27,295.13 322.37,284.98 322.55,306.96 322.65,372.44 322.93,382.76 323.02,401.73 323.12,369.11 323.21,358.70 323.31,387.60 323.59,362.35 323.68,399.87 323.78,406.58 323.87,415.46 323.96,400.95 324.25,398.52 324.43,403.86 324.53,375.73 324.62,404.28 324.90,389.01 325.00,386.40 325.09,395.02 325.19,399.96 325.28,371.75 325.56,386.41 325.66,429.99 325.75,470.37 325.84,462.96 325.94,458.90 326.22,444.96 326.31,452.59 326.41,407.87 326.50,448.90 326.60,450.26 326.88,444.56 327.07,432.76 327.16,423.00 327.25,411.84 327.54,373.45 327.63,356.66 327.72,345.39 327.82,371.04 327.91,399.74 328.19,399.83 328.29,394.94 328.38,384.59 328.48,427.40 328.57,430.40 328.85,463.49 328.95,429.41 329.04,433.21 329.13,405.66 329.23,441.69 329.51,466.93 329.60,430.93 329.70,478.46 329.79,468.61 329.89,468.61 330.26,433.04 330.36,446.24 330.45,476.94 330.54,489.32 330.83,481.36 330.92,432.85 331.01,434.98 331.11,425.55 331.20,418.09 331.48,418.73 331.58,427.66 331.67,431.13 331.77,396.71 331.86,451.79 332.14,464.39 332.24,466.65 332.33,443.46 332.42,450.75 332.52,445.56 332.80,431.26 332.89,477.21 332.99,461.66 333.08,457.11 333.18,463.08 333.46,470.83 333.55,470.78 333.65,484.82 333.74,460.30 333.83,463.25 334.12,472.86 334.21,462.38 334.30,481.43 334.40,476.30 334.49,470.04 334.77,454.27 334.87,458.11 334.96,456.69 335.06,433.01 335.15,427.15 335.43,432.97 335.53,451.88 335.62,478.65 335.71,473.22 335.81,484.94 336.09,481.81 336.28,429.15 336.37,416.23 336.47,402.57 336.75,417.38 336.84,419.15 336.94,397.44 337.03,368.54 337.12,412.01 337.41,403.54 337.50,415.38 337.59,456.86 337.69,434.55 337.78,378.83 338.06,355.56 338.16,362.40 338.25,368.24 338.35,321.77 338.44,357.00 338.72,375.14 338.82,369.29 338.91,319.11 339.00,372.55 339.10,379.95 339.38,381.38 339.47,371.25 339.57,400.71 339.66,420.81 339.76,412.26 340.13,380.27 340.23,426.46 340.32,390.37 340.41,406.91 340.70,407.37 340.79,402.88 340.88,375.84 340.98,360.65 341.07,389.46 341.35,391.70 341.45,411.94 341.54,391.13 341.64,451.84 341.73,439.80 342.01,475.48 342.11,455.67 342.20,451.37 342.29,455.87 342.39,479.72 342.67,491.60 342.76,477.86 342.86,460.24 342.95,469.55 343.05,453.43 343.33,426.39 343.42,416.96 343.52,420.84 343.61,409.48 343.70,402.71 343.99,423.03 344.08,432.16 344.17,409.98 344.27,377.90 344.36,350.32 344.64,367.23 344.74,358.68 344.83,343.53 344.93,327.59 345.02,356.50 345.30,331.18 345.49,324.61 345.58,370.58 345.68,366.44 345.96,357.30 346.05,391.60 346.15,377.34 346.24,359.27 346.34,364.51 346.62,344.27 346.71,323.75 346.81,395.44 346.90,307.27 346.99,253.35 347.28,268.20 347.37,201.26 347.46,169.32 347.56,107.52 347.65,80.53 347.93,206.50 348.03,134.78 348.12,115.89 348.22,172.13 348.31,184.10 348.59,258.24 348.69,342.12 348.78,319.71 348.87,344.82 348.97,335.74 349.25,175.35 349.34,221.78 349.44,350.94 349.53,286.52 349.63,298.48 349.91,248.99 350.00,326.40 350.10,386.28 350.19,411.75 350.28,460.62 350.57,481.80 350.66,384.52 350.75,314.79 350.85,260.99 350.94,225.26 351.22,206.62 351.32,133.38 351.41,132.20 351.51,144.31 351.60,108.56 351.88,139.80 351.98,164.81 352.07,244.28 352.16,155.71 352.26,235.62 352.54,278.63 352.63,289.84 352.73,400.74 352.82,488.91 352.92,480.92 353.20,409.26 353.29,428.25 353.39,342.02 353.48,337.92 353.86,471.23 353.95,459.85 354.04,412.59 354.14,480.55 354.23,449.44 354.51,414.94 354.61,394.49 354.70,375.97 354.80,442.90 354.89,397.00 355.17,435.56 355.27,381.03 355.36,387.27 355.45,425.31 355.55,406.73 355.83,452.44 355.92,479.92 356.02,467.78 356.11,467.86 356.49,480.50 356.58,458.76 356.68,421.03 356.77,418.50 357.15,343.22 357.24,255.07 357.33,307.30 357.43,277.86 357.52,313.88 357.80,354.96 357.90,359.97 357.99,425.26 358.09,396.42 358.18,366.32 358.46,364.99 358.65,420.56 358.74,476.42 358.84,464.06 359.12,463.66 359.21,449.19 359.31,405.97 359.40,451.13 359.50,482.60 359.78,482.09 359.87,442.30 359.97,433.94 360.06,354.26 360.15,298.40 360.44,263.67 360.53,334.51 360.62,339.43 360.72,301.69 360.81,289.62 361.09,259.64 361.28,328.77 361.38,359.96 361.47,351.85 361.75,393.96 361.85,336.43 361.94,325.36 362.03,359.00 362.13,372.26 362.41,448.02 362.50,446.21 362.60,406.54 362.69,447.93 362.79,468.26 363.07,496.70 363.16,487.31 363.26,491.35 363.35,463.32 363.44,456.52 363.73,485.80 363.82,456.10 363.91,424.58 364.01,441.70 364.10,485.80 364.38,424.38 364.48,457.12 364.57,457.15 364.67,386.62 364.76,431.43 365.04,483.49 365.14,484.41 365.23,485.24 365.32,453.79 365.42,427.43 365.70,435.00 365.79,483.37 365.89,467.37 365.98,428.25 366.08,425.18 366.45,441.38 366.55,464.73 366.64,426.54 366.73,415.24 367.02,482.85 367.11,479.38 367.20,467.63 367.30,469.04 367.39,439.69 367.67,446.57 367.77,450.90 367.86,405.61 367.96,373.14 368.05,374.38 368.33,334.20 368.43,346.43 368.52,345.58 368.61,392.56 368.71,409.57 368.99,411.98 369.08,435.91 369.18,477.56 369.27,472.85 369.37,490.61 369.65,466.10 369.74,451.68 369.84,452.02 369.93,482.74 370.02,493.14 370.31,493.01 370.49,480.97 370.59,476.82 370.68,476.19 370.96,421.79 371.06,434.11 371.15,449.44 371.25,428.55 371.34,441.82 371.62,430.26 371.72,390.73 371.81,394.04 371.90,393.92 372.00,400.35 372.28,429.92 372.37,452.37 372.47,438.30 372.56,447.99 372.66,428.06 372.94,483.15 373.03,466.23 373.13,442.61 373.22,414.25 373.31,406.78 373.60,400.11 373.69,404.71 373.78,397.39 373.88,429.45 373.97,429.45 374.35,485.69 374.44,491.59 374.54,492.00 374.63,499.17 374.91,496.33 375.01,497.72 375.10,488.20 375.19,483.12 375.29,481.67 375.57,473.56 375.66,474.29 375.76,472.76 375.85,456.89 375.95,466.25 376.23,461.24 376.32,447.63 376.42,456.59 376.51,459.61 376.60,462.25 376.89,420.66 376.98,419.17 377.07,439.30 377.17,456.76 377.26,441.17 377.54,453.72 377.64,468.32 377.73,443.22 377.83,427.03 377.92,455.36 378.20,499.20 378.30,488.12 378.39,469.20 378.48,467.60 378.58,443.88 378.86,457.26 378.95,455.24 379.05,452.43 379.14,447.67 379.24,433.64 379.52,451.76 379.61,488.10 379.71,496.45 379.80,496.27 379.89,487.94 380.18,486.25 380.36,469.62 380.46,458.17 380.55,467.53 380.83,464.18 380.93,458.76 381.02,458.69 381.12,446.17 381.21,429.09 381.49,422.85 381.59,411.56 381.68,419.73 381.77,440.15 381.87,446.37 382.15,410.55 382.24,427.69 382.34,420.64 382.43,482.24 382.53,490.83 382.81,489.84 382.90,478.52 383.00,482.31 383.09,483.12 383.18,452.14 383.47,436.05 383.56,415.16 383.65,363.79 383.75,365.11 383.84,381.71 384.12,363.58 384.22,367.44 384.31,387.92 384.41,375.35 384.50,393.76 384.78,398.06 384.88,427.00 384.97,468.10 385.06,436.46 385.16,484.16 385.44,485.38 385.53,495.43 385.63,498.06 385.72,490.12 385.82,490.71 386.10,473.85 386.19,475.86 386.29,463.69 386.38,472.42 386.47,460.26 386.76,438.96 386.85,430.50 386.94,441.57 387.04,475.70 387.13,483.65 387.41,465.44 387.51,469.28 387.60,458.90 387.70,458.90 388.07,486.62 388.17,473.44 388.26,465.57 388.35,463.88 388.45,456.01 388.73,460.02 388.82,472.90 388.92,469.10 389.01,465.81 389.11,475.73 389.39,464.41 389.48,476.53 389.58,474.72 389.67,497.65 389.76,496.66 390.05,493.64 390.14,488.27 390.23,481.86 390.33,468.57 390.42,466.11 390.80,457.32 390.89,447.25 390.99,458.90 391.08,444.97 391.46,426.49 391.55,427.65 391.64,435.64 391.74,376.51 392.02,373.67 392.11,406.33 392.21,384.39 392.30,373.82 392.40,372.23 392.68,371.97 392.87,366.38 392.96,360.08 393.05,416.42 393.34,406.61 393.43,409.93 393.52,397.45 393.62,430.60 393.71,466.52 393.99,445.06 394.09,430.32 394.18,433.37 394.28,487.54 394.37,483.12 394.65,491.82 394.75,484.42 394.84,489.84 394.93,479.21 395.03,480.01 395.31,478.50 395.50,456.44 395.59,449.61 395.69,448.05 395.97,457.52 396.06,487.74 396.16,483.21 396.25,488.85 396.34,489.85 396.63,463.52 396.72,468.84 396.81,480.16 396.91,482.87 397.00,475.27 397.28,474.01 397.38,478.55 397.47,468.10 397.57,469.92 397.66,472.51 397.94,486.81 398.04,470.96 398.13,460.42 398.22,466.35 398.32,478.06 398.60,468.69 398.69,451.53 398.79,469.21 398.88,475.77 398.98,482.49 399.26,476.59 399.35,473.01 399.45,482.43 399.54,482.97 399.63,479.98 400.01,470.73 400.10,466.71 400.20,472.35 400.29,467.16 400.57,466.13 400.67,461.82 400.76,436.92 400.86,433.78 400.95,438.21 401.23,440.94 401.33,407.79 401.42,408.19 401.51,359.87 401.61,325.74 401.89,325.12 401.98,361.41 402.08,362.12 402.17,339.02 402.27,378.82 402.55,352.39 402.64,391.03 402.74,403.16 402.83,421.59 402.92,446.43 403.21,375.92 403.30,375.85 403.39,326.61 403.49,350.53 403.58,395.33 403.86,378.72 403.96,411.92 404.05,413.37 404.15,466.02 404.24,450.29 404.52,454.49 404.62,445.92 404.71,452.74 404.80,396.26 404.90,414.53 405.18,414.51 405.37,396.02 405.46,380.22 405.56,439.73 405.84,478.02 405.93,484.97 406.03,498.35 406.12,475.47 406.21,461.92 406.50,457.37 406.59,365.95 406.68,336.82 406.78,319.19 406.87,309.47 407.15,323.04 407.25,340.62 407.34,345.49 407.44,379.83 407.53,376.06 407.81,378.27 407.91,445.91 408.00,475.74 408.09,476.45 408.19,483.43 408.47,482.98 408.66,473.21 408.75,465.23 408.85,458.20 409.13,454.12 409.22,423.09 409.32,411.92 409.41,401.18 409.50,447.90 409.79,432.11 409.88,425.48 409.97,458.84 410.07,450.17 410.16,442.72 410.44,430.07 410.54,415.85 410.63,416.35 410.73,423.82 410.82,422.38 411.10,395.37 411.20,408.61 411.29,390.27 411.38,387.13 411.48,384.20 411.76,369.85 411.85,381.95 411.95,424.48 412.04,425.41 412.14,432.64 412.42,421.15 412.51,401.02 412.61,394.98 412.70,415.12 412.79,417.28 413.08,433.40 413.17,465.01 413.26,449.24 413.36,472.90 413.45,447.70 413.73,476.62 413.83,496.11 413.92,486.50 414.02,473.23 414.11,457.61 414.39,457.61 414.58,479.68 414.67,472.18 414.77,487.95 415.05,477.70 415.14,470.67 415.24,472.79 415.33,471.69 415.43,471.91 415.71,457.33 415.80,456.31 415.90,474.18 415.99,478.27 416.08,452.29 416.37,461.37 416.46,454.90 416.55,446.65 416.65,461.07 416.74,463.95 417.02,480.31 417.12,461.80 417.21,481.56 417.31,476.33 417.40,477.94 417.68,476.93 417.78,474.76 417.87,475.38 417.96,476.75 418.06,454.63 418.34,456.20 418.43,483.80 418.53,483.80 418.62,486.04 418.72,482.04 419.00,476.81 419.09,473.26 419.19,471.21 419.28,474.12 419.37,466.71 419.66,464.01 419.75,445.91 419.84,438.24 419.94,417.24 420.03,408.54 420.31,413.71 420.41,421.58 420.50,421.07 420.60,440.20 420.69,451.75 420.97,460.41 421.07,477.97 421.16,481.97 421.25,470.59 421.35,463.14 421.63,457.51 421.72,476.68 421.82,450.67 421.91,450.51 422.29,464.09 422.38,476.64 422.48,467.25 422.57,459.73 422.66,459.53 422.95,464.08 423.04,464.70 423.13,461.45 423.23,459.62 423.32,457.37 423.60,469.59 423.70,476.24 423.79,487.50 423.89,477.50 423.98,470.96 424.26,468.23 424.36,459.42 424.45,454.40 424.54,464.69 424.64,463.30 425.01,470.32 425.11,468.91 425.20,472.59 425.30,478.33 425.58,475.05 425.67,478.22 425.77,475.68 425.86,466.62 425.95,463.87 426.24,460.47 426.33,465.90 426.42,455.85 426.52,458.03 426.61,431.31 426.89,429.76 427.08,452.44 427.18,469.49 427.27,480.11 427.55,465.14 427.65,468.50 427.74,459.00 427.83,443.30 427.93,481.96 428.21,484.54 428.30,470.24 428.40,465.44 428.49,470.60 428.59,460.14 428.87,466.17 428.96,448.83 429.06,439.63 429.15,444.36 429.24,435.86 429.53,421.90 429.62,423.09 429.71,408.20 429.81,400.12 429.90,396.38 430.18,392.44 430.37,461.65 430.47,430.47 430.56,407.57 430.84,411.45 430.94,429.09 431.03,394.05 431.12,366.80 431.22,372.17 431.50,393.20 431.59,388.19 431.69,408.46 431.78,439.29 431.88,432.21 432.16,440.91 432.25,457.47 432.35,494.18 432.44,490.31 432.53,492.88 432.82,479.59 432.91,488.93 433.00,487.78 433.10,463.16 433.19,462.75 433.47,460.00 433.57,443.34 433.66,436.51 433.76,437.64 433.85,439.09 434.13,440.24 434.23,436.92 434.32,427.97 434.41,429.58 434.51,437.50 434.79,446.86 434.88,464.62 434.98,464.83 435.07,465.94 435.17,462.40 435.45,488.08 435.54,483.40 435.64,464.74 435.73,467.73 435.82,467.18 436.20,465.35 436.29,450.69 436.39,450.21 436.48,448.99 436.76,442.05 436.86,452.76 436.95,455.03 437.05,461.09 437.14,451.69 437.42,431.51 437.52,416.52 437.61,430.83 437.70,415.51 437.80,431.38 438.08,458.08 438.17,464.54 438.27,443.88 438.36,441.57 438.46,437.11 438.74,457.07 438.83,461.80 438.93,442.64 439.02,432.04 439.11,405.14 439.40,397.60 439.58,400.62 439.68,385.98 439.77,391.44 440.05,400.51 440.15,397.91 440.24,417.45 440.34,419.42 440.43,437.10 440.71,442.10 440.81,419.90 440.90,453.99 440.99,469.67 441.09,487.34 441.37,485.91 441.46,469.45 441.56,480.86 441.65,465.60 441.75,497.73 442.03,495.91 442.12,476.91 442.22,471.01 442.31,446.23 442.40,426.18 442.69,416.68 442.87,413.89 442.97,382.04 443.06,393.64 443.34,419.29 443.44,441.70 443.53,428.93 443.63,450.17 443.72,439.58 444.00,455.10 444.10,397.13 444.19,403.89 444.28,339.98 444.38,296.59 444.66,224.31 444.75,227.03 444.85,255.13 444.94,256.07 445.04,259.09 445.32,264.43 445.41,303.72 445.51,293.42 445.60,359.85 445.69,352.10 445.98,445.85 446.07,380.64 446.16,441.63 446.26,379.57 446.35,374.29 446.63,346.76 446.73,362.40 446.82,372.75 446.92,458.45 447.01,491.32 447.29,497.90 447.39,461.02 447.48,459.53 447.57,491.39 447.67,465.18 447.95,423.59 448.04,420.76 448.14,421.03 448.23,433.69 448.33,471.89 448.61,469.17 448.80,440.19 448.89,431.09 448.98,458.60 449.27,446.15 449.36,428.68 449.45,391.14 449.55,367.13 449.64,342.26 449.92,306.82 450.02,322.35 450.11,345.22 450.21,395.73 450.30,375.60 450.58,354.52 450.68,340.02 450.77,374.58 450.86,397.28 450.96,437.96 451.24,494.86 451.33,489.71 451.43,475.87 451.52,466.76 451.62,475.06 451.90,466.31 451.99,455.53 452.09,446.31 452.18,422.32 452.27,403.40 452.56,442.02 452.65,407.21 452.74,440.48 452.84,452.60 452.93,448.28 453.21,416.30 453.31,455.89 453.40,460.04 453.50,420.22 453.59,408.43 453.87,433.13 453.97,475.87 454.06,468.41 454.15,412.48 454.25,396.64 454.53,376.42 454.62,353.05 454.72,386.42 454.81,373.34 454.91,324.55 455.19,340.87 455.28,331.56 455.38,340.55 455.47,387.22 455.56,400.39 455.85,430.28 455.94,440.67 456.03,479.89 456.13,478.30 456.50,480.10 456.60,483.69 456.69,431.83 456.79,418.90 456.88,415.74 457.16,384.06 457.26,387.79 457.35,375.35 457.44,412.20 457.54,389.49 457.82,414.03 457.91,441.69 458.01,466.81 458.10,473.29 458.20,464.87 458.48,493.16 458.57,471.08 458.67,492.24 458.76,474.66 458.85,466.61 459.14,463.76 459.32,483.54 459.42,473.27 459.51,470.01 459.79,470.01 459.98,475.60 460.08,471.13 460.17,467.91 460.45,470.49 460.55,467.30 460.64,463.46 460.73,462.01 460.83,486.35 461.11,485.96 461.30,471.76 461.39,462.34 461.49,471.59 461.77,480.59 461.86,479.91 461.96,474.45 462.05,482.82 462.14,478.02 462.43,485.55 462.52,489.46 462.61,485.18 462.71,480.01 462.80,462.76 463.08,469.75 463.18,465.17 463.27,455.15 463.37,452.57 463.46,470.72 463.74,464.11 463.84,455.64 463.93,462.80 464.02,442.27 464.12,452.57 464.40,444.29 464.59,461.32 464.68,454.27 464.78,456.44 465.06,457.09 465.15,440.66 465.25,457.58 465.34,444.42 465.43,450.46 465.72,475.87 465.81,495.56 465.90,493.92 466.00,486.51 466.09,480.90 466.37,487.02 466.47,474.21 466.56,484.07 466.66,476.67 466.75,480.40 467.03,478.56 467.13,480.01 467.22,467.05 467.31,464.40 467.41,463.13 467.69,425.92 467.78,398.88 467.88,407.20 467.97,410.20 468.07,406.23 468.35,394.40 468.44,403.73 468.54,432.87 468.63,429.73 468.72,422.50 469.10,452.27 469.19,438.87 469.29,416.11 469.38,436.00 469.66,442.71 469.76,423.63 469.85,423.87 469.95,429.24 470.04,428.40 470.32,445.43 470.42,451.61 470.51,415.27 470.60,391.45 470.70,402.44 470.98,404.99 471.07,390.04 471.17,373.99 471.26,378.45 471.36,385.77 471.64,385.04 471.73,389.41 471.83,392.18 471.92,390.70 472.01,379.61 472.30,391.99 472.39,395.76 472.48,410.83 472.58,438.41 472.67,437.98 472.95,402.28 473.05,410.37 473.14,401.93 473.24,415.11 473.33,409.38 473.61,407.49 473.80,416.44 473.89,431.32 473.99,487.28 474.27,487.52 474.36,485.52 474.46,459.59 474.55,473.60 474.65,455.11 474.93,478.32 475.02,460.40 475.12,471.88 475.21,472.36 475.30,458.20 475.59,442.03 475.68,424.59 475.77,416.53 475.87,464.82 475.96,442.85 476.24,475.60 476.34,463.30 476.43,443.01 476.53,462.11 476.62,418.67 476.90,419.14 477.00,403.76 477.09,403.76 477.28,431.03 477.56,431.49 477.65,443.20 477.75,437.14 477.84,444.38 477.94,427.15 478.22,433.08 478.31,430.66 478.41,403.52 478.50,389.38 478.59,420.52 478.88,443.03 478.97,463.19 479.06,479.59 479.16,473.35 479.25,454.47 479.53,467.55 479.63,477.38 479.72,489.04 479.82,498.38 479.91,487.99 480.19,489.00 480.29,477.70 480.38,473.25 480.47,465.32 480.57,462.59 480.85,462.85 480.94,470.87 481.04,462.47 481.13,435.62 481.23,440.98 481.51,447.45 481.60,441.45 481.70,436.80 481.79,451.28 481.88,448.22 482.17,450.61 482.26,452.85 482.35,450.85 482.45,473.38 482.54,466.08 482.82,463.98 483.01,476.52 483.11,442.28 483.20,452.10 483.48,463.18 483.58,445.38 483.67,435.56 483.76,419.37 483.86,405.72 484.14,409.55 484.23,421.25 484.33,420.38 484.42,422.30 484.52,420.46 484.80,433.81 484.89,453.28 484.99,457.05 485.08,434.21 485.17,433.47 485.46,440.19 485.55,434.41 485.64,424.53 485.74,405.34 485.83,381.62 486.11,380.43 486.21,404.71 486.30,408.53 486.40,407.31 486.49,421.46 486.77,415.40 486.87,395.04 486.96,400.69 487.05,418.85 487.15,460.82 487.43,459.05 487.52,463.70 487.62,476.08 487.71,459.60 487.81,460.32 488.09,457.38 488.37,398.55 488.46,413.70 488.75,397.76 488.84,381.18 488.93,418.94 489.03,441.83 489.12,439.85 489.40,445.09 489.50,449.78 489.59,475.99 489.69,489.68 489.78,489.22 490.06,476.05 490.16,481.09 490.25,480.05 490.34,479.82 490.72,467.56 490.81,478.93 490.91,473.28 491.00,469.66 491.10,462.43 491.38,468.94 491.47,467.55 491.57,477.77 491.66,471.86 491.75,473.66 492.04,469.26 492.13,458.75 492.22,457.37 492.32,464.68 492.41,462.25 492.69,448.37 492.79,431.81 492.88,437.25 492.98,437.38 493.07,450.01 493.35,456.90 493.45,456.90 493.63,477.91 493.73,494.73 494.01,487.55 494.10,484.38 494.29,467.55 494.39,467.08 494.67,468.49 494.76,476.38 494.86,476.71 494.95,470.99 495.04,467.66 495.33,468.21 495.42,473.15 495.51,471.78 495.61,465.60 495.70,474.87 495.98,474.27 496.17,469.53 496.27,472.55 496.36,460.79 496.64,461.11 496.74,475.47 496.83,482.52 496.92,486.67 497.02,466.27 497.30,490.37 497.39,478.75 497.49,466.27 497.58,462.84 497.68,448.85 497.96,443.17 498.05,441.09 498.15,436.79 498.24,429.58 498.33,438.61 498.62,437.09 498.80,451.46 498.90,474.77 498.99,460.27 499.27,487.47 499.37,485.17 499.46,477.19 499.56,484.05 499.65,476.74 499.93,472.35 500.03,453.59 500.12,453.60 500.21,453.97 500.31,445.90 500.59,443.91 500.68,442.77 500.78,435.81 500.87,435.45 500.97,459.56 501.25,470.54 501.34,476.39 501.44,456.17 501.53,474.37 501.62,461.72 501.91,462.87 502.00,450.41 502.09,448.28 502.19,435.01 502.28,434.54 502.66,449.88 502.75,463.45 502.85,447.63 502.94,460.39 503.22,449.05 503.32,440.53 503.41,415.54 503.50,421.74 503.60,420.70 503.88,453.64 503.97,435.68 504.07,464.99 504.16,487.07 504.26,479.14 504.54,477.95 504.63,468.98 504.73,476.64 504.82,470.53 504.91,485.97 505.20,484.17 505.29,482.00 505.38,492.62 505.48,485.37 505.57,475.44 505.85,470.87 505.95,482.77 506.04,480.03 506.14,483.79 506.23,472.70 506.51,477.65 506.61,470.49 506.70,462.32 506.79,473.97 506.89,450.95 507.17,456.93 507.26,452.26 507.36,465.35 507.45,469.17 507.55,465.58 507.83,465.53 508.02,454.07 508.11,438.14 508.20,455.91 508.49,456.05 508.58,458.00 508.67,478.90 508.77,461.04 508.86,434.93 509.14,419.32 509.24,445.80 509.33,461.13 509.43,439.24 509.52,448.90 509.80,430.81 509.90,415.92 509.99,426.27 510.08,468.44 510.18,470.63 510.46,493.99 510.55,477.69 510.65,472.02 510.74,469.30 510.84,473.94 511.12,474.48 511.21,475.83 511.31,474.98 511.40,474.98 511.78,470.74 511.87,475.92 511.96,471.44 512.06,445.75 512.15,426.61 512.43,424.57 512.53,430.86 512.62,426.01 512.72,428.68 512.81,441.05 513.09,443.47 513.19,454.44 513.28,466.98 513.37,468.60 513.47,472.63 513.75,481.81 513.84,475.02 513.94,474.25 514.03,440.90 514.13,436.88 514.41,435.55 514.50,447.50 514.60,451.40 514.69,443.21 514.78,448.78 515.07,445.73 515.16,421.57 515.25,424.92 515.35,455.89 515.44,456.49 515.72,461.56 515.82,454.36 515.91,460.79 516.01,447.83 516.10,448.05 516.38,448.73 516.48,485.98 516.57,482.16 516.66,478.32 516.76,488.38 517.04,486.84 517.23,482.10 517.32,482.88 517.42,488.36 517.70,481.69 517.79,469.52 517.89,473.73 517.98,477.23 518.07,473.74 518.36,474.54 518.45,467.80 518.54,454.95 518.64,453.26 518.73,456.00 519.01,468.34 519.11,454.90 519.20,441.36 519.30,439.68 519.39,443.81 519.67,447.04 519.77,435.60 519.86,437.86 519.95,451.17 520.05,433.62 520.33,442.29 520.42,469.96 520.52,479.56 520.61,466.11 520.70,463.33 520.99,449.90 521.08,463.76 521.17,451.74 521.27,447.54 521.36,446.21 521.64,446.00 521.74,449.34 521.83,464.16 521.93,448.14 522.02,444.23 522.30,446.77 522.40,438.06 522.49,446.85 522.58,445.04 522.68,449.58 522.96,438.42 523.05,439.46 523.15,444.74 523.24,478.77 523.34,469.20 523.62,465.59 523.71,465.68 523.81,452.18 523.90,456.88 523.99,444.10 524.28,464.47 524.37,475.09 524.46,482.90 524.56,472.83 524.65,468.87 524.93,469.49 525.03,465.41 525.12,456.49 525.22,450.47 525.59,455.83 525.69,453.25 525.78,462.89 525.87,466.80 525.97,456.87 526.25,453.96 526.34,455.91 526.44,476.18 526.53,482.91 526.63,484.57 526.91,486.25 527.00,484.76 527.10,486.40 527.19,495.95 527.28,490.13 527.57,477.85 527.66,471.94 527.75,470.64 527.94,466.97 528.22,457.50 528.32,451.85 528.41,451.61 528.60,469.50 528.88,479.90 528.98,474.27 529.07,460.92 529.16,466.52 529.26,449.95 529.54,468.32 529.63,433.16 529.73,421.49 529.82,430.14 529.92,431.40 530.20,410.34 530.39,389.81 530.48,398.85 530.57,433.10 530.86,446.17 530.95,445.10 531.04,457.35 531.14,437.98 531.23,452.54 531.51,489.98 531.61,486.76 531.70,498.80 531.80,498.19 531.89,493.53 532.17,491.42 532.27,482.50 532.36,483.39 532.45,476.10 532.55,476.05 532.83,473.49 533.02,480.80 533.11,472.74 533.21,475.92 533.49,470.49 533.58,473.57 533.68,470.24 533.77,462.40 533.86,462.93 534.15,470.46 534.24,453.03 534.33,454.04 534.43,457.33 534.52,453.13 534.80,448.55 534.90,453.18 534.99,432.46 535.09,450.18 535.18,454.08 535.46,448.52 535.56,434.69 535.65,438.90 535.74,426.03 535.84,429.86 536.12,441.38 536.21,437.72 536.31,457.45 536.40,457.16 536.50,435.32 536.78,415.46 536.87,382.79 536.97,375.75 537.06,384.97 537.15,426.72 537.44,439.14 537.53,425.19 537.62,404.27 537.72,458.89 537.81,476.59 538.09,469.32 538.19,469.30 538.28,464.97 538.38,457.06 538.47,456.55 538.85,420.46 538.94,433.30 539.03,418.50 539.13,458.14 539.41,466.66 539.50,457.11 539.60,453.89 539.69,452.54 539.79,453.06 540.07,448.89 540.16,471.86 540.26,479.69 540.35,485.24 540.44,488.60 540.73,468.48 540.82,475.34 540.91,479.97 541.01,497.28 541.10,492.58 541.38,485.24 541.48,496.92 541.57,495.38 541.67,494.73 541.76,491.24 542.04,488.92 542.23,485.64 542.32,482.54 542.42,485.67 542.70,482.37 542.79,484.30 542.89,482.78 542.98,479.29 543.08,471.60 543.36,475.69 543.45,470.59 543.55,467.37 543.64,478.27 543.73,476.99 544.02,479.51 544.11,475.66 544.20,475.55 544.30,481.17 544.39,482.68 544.67,482.11 544.77,487.44 544.86,482.19 544.96,486.59 545.05,483.93 545.33,483.35 545.43,470.30 545.52,468.84 545.61,451.76 545.71,446.92 546.08,471.58 546.18,458.42 546.27,461.81 546.37,446.96 546.65,434.00 546.74,438.62 546.84,432.02 546.93,446.15 547.02,437.32 547.31,436.56 547.40,429.46 547.49,436.13 547.59,429.44 547.68,447.61 547.96,450.71 548.06,453.93 548.15,443.90 548.25,474.57 548.34,477.98 548.62,471.02 548.72,483.78 548.81,481.84 548.90,495.86 549.00,494.08 549.28,489.32 549.37,496.13 549.47,493.46 549.56,495.32 549.66,494.76 549.94,491.32 550.03,485.23 550.13,484.62 550.22,482.37 550.31,482.91 550.60,484.40 550.69,481.13 550.78,483.47 550.88,484.34 550.97,475.91 551.25,460.97 551.44,457.45 551.54,459.14 551.63,451.37 551.91,445.68 552.01,453.49 552.10,447.32 552.19,441.71 552.29,453.28 552.57,474.26 552.66,460.51 552.76,443.69 552.85,422.66 552.95,429.93 553.23,448.10 553.32,445.94 553.42,424.58 553.51,442.45 553.60,376.22 553.89,350.42 553.98,351.19 554.07,373.55 554.17,360.88 554.26,342.04 554.54,347.38 554.64,371.47 554.73,340.48 554.83,374.91 554.92,436.62 555.20,466.65 555.30,467.92 555.39,477.49 555.48,493.06 555.58,493.46 555.86,492.70 555.95,475.11 556.05,493.66 556.14,485.90 556.24,485.42 556.52,488.75 556.61,476.16 556.71,481.07 556.80,483.05 556.89,469.66 557.18,461.97 557.27,466.29 557.36,468.41 557.46,470.84 557.55,477.41 557.83,470.38 557.93,469.81 558.02,466.81 558.12,471.78 558.21,470.37 558.49,478.50 558.59,470.35 558.68,477.95 558.77,476.18 558.87,474.03 559.15,463.74 559.24,465.48 559.34,458.14 559.43,457.73 559.81,447.45 559.90,420.97 560.00,411.01 560.09,412.04 560.18,408.24 560.47,419.70 560.56,414.89 560.65,444.86 560.75,436.76 560.84,454.09 561.12,471.92 561.22,494.21 561.31,489.20 561.41,475.60 561.50,473.37 561.78,447.55 561.88,427.18 561.97,423.90 562.06,423.90 562.44,413.43 562.53,422.49 562.63,428.20 562.72,421.42 563.10,447.02 563.19,470.72 563.29,459.21 563.38,429.95 563.47,436.90 563.76,452.07 563.85,447.59 563.94,451.33 564.04,463.61 564.13,440.71 564.41,439.35 564.60,426.23 564.70,404.35 564.79,406.91 565.07,406.14 565.17,436.50 565.26,457.91 565.35,455.77 565.45,484.79 565.73,483.41 565.82,472.98 565.92,479.00 566.01,466.90 566.11,483.54 566.39,495.81 566.48,491.72 566.58,493.53 566.67,488.95 566.76,481.92 567.05,480.51 567.23,479.84 567.33,472.91 567.42,449.78 567.70,454.60 567.80,431.71 567.89,430.89 567.99,421.86 568.08,426.92 568.36,405.73 568.46,423.11 568.55,432.80 568.64,428.72 568.74,452.04 569.02,446.94 569.11,477.23 569.21,459.44 569.30,450.97 569.40,453.24 569.68,433.54 569.77,436.38 569.87,420.49 569.96,412.57 570.05,401.93 570.34,411.77 570.43,416.21 570.52,472.96 570.62,481.06 570.71,474.85 570.99,461.92 571.09,481.28 571.18,488.67 571.28,490.32 571.37,480.92 571.75,475.93 571.84,468.32 571.93,457.78 572.03,448.50 572.31,449.38 572.40,457.65 572.50,445.28 572.59,444.50 572.69,470.00 572.97,463.78 573.06,455.30 573.16,445.08 573.25,445.38 573.34,444.18 573.63,450.57 573.72,448.73 573.81,458.43 573.91,477.31 574.00,452.91 574.28,453.99 574.38,482.01 574.47,490.60 574.57,489.40 574.66,475.61 574.94,479.40 575.04,483.71 575.13,482.98 575.22,473.27 575.32,470.93 575.60,465.67 575.69,473.91 575.79,476.49 575.88,468.44 575.98,469.81 576.26,459.10 576.45,450.58 576.54,446.09 576.63,452.05 576.92,447.09 577.01,453.36 577.10,450.31 577.20,464.04 577.29,464.96 577.57,486.18 577.67,488.85 577.76,472.07 577.86,467.60 577.95,467.40 578.23,445.61 578.33,433.50 578.42,430.14 578.51,407.55 578.61,412.96 578.89,398.44 578.98,395.58 579.08,389.84 579.17,383.92 579.27,406.27 579.55,449.13 579.64,446.17 579.74,437.72 579.83,423.47 579.92,421.13 580.30,446.66 580.39,475.35 580.49,485.71 580.58,471.12 580.86,449.28 580.96,438.05 581.05,443.13 581.15,437.55 581.24,433.43 581.52,435.99 581.62,434.28 581.71,447.20 581.80,446.62 581.90,470.10 582.18,483.03 582.27,466.79 582.37,461.44 582.46,451.79 582.56,454.61 582.84,451.11 582.93,455.66 583.03,432.56 583.12,420.74 583.21,375.31 583.50,303.67 583.59,301.59 583.68,298.91 583.78,307.82 583.87,305.98 584.15,291.50 584.25,306.00 584.34,318.68 584.44,372.60 584.53,421.47 584.81,479.02 584.91,496.42 585.00,468.23 585.09,430.73 585.19,416.17 585.47,428.73 585.56,481.09 585.66,461.16 585.75,462.43 585.85,477.63 586.13,473.35 586.32,436.14 586.41,423.85 586.50,415.68 586.79,399.63 586.88,379.51 586.97,367.51 587.07,371.94 587.16,400.80 587.44,402.67 587.54,428.22 587.63,436.31 587.73,432.60 587.82,442.91 588.10,484.85 588.20,489.75 588.29,474.14 588.38,484.19 588.48,471.80 588.76,460.58 588.85,460.42 588.95,449.71 589.04,439.65 589.14,433.17 589.42,434.86 589.51,444.22 589.61,444.62 589.70,446.04 589.79,447.39 590.08,443.31 590.17,465.14 590.26,478.34 590.36,456.38 590.45,452.93 590.73,461.01 590.83,462.34 590.92,448.99 591.02,452.94 591.11,438.21 591.39,423.13 591.49,416.16 591.58,411.43 591.67,426.19 591.77,412.94 592.05,428.75 592.14,442.08 592.24,442.38 592.33,463.44 592.43,490.96 592.71,484.72 592.80,487.34 592.90,479.62 592.99,468.84 593.08,467.76 593.37,470.25 593.46,467.05 593.55,455.28 593.65,452.93 594.02,426.25 594.12,405.83 594.21,417.12 594.31,443.66 594.40,407.74 594.68,420.17 594.78,422.58 594.87,449.48 594.96,441.15 595.06,474.67 595.34,481.85 595.43,470.32 595.53,451.84 595.62,471.93 595.72,496.25 596.00,475.51 596.09,459.45 596.19,418.01 596.28,372.33 596.37,348.03 596.75,319.34 596.84,308.01 596.94,325.66 597.03,302.30 597.41,322.00 597.50,339.32 597.60,377.52 597.69,400.44 597.97,389.64 598.07,373.76 598.16,418.19 598.25,386.96 598.35,437.40 598.63,437.40 598.82,451.86 598.91,448.36 599.01,398.49 599.29,398.21 599.38,376.10 599.48,398.48 599.57,386.84 599.66,345.04 599.95,337.39 600.04,381.78 600.13,378.28 600.23,368.01 600.32,430.18 600.60,469.94 600.70,482.06 600.79,484.18 600.89,499.21 600.98,498.76 601.26,497.88 601.45,464.54 601.54,478.64 601.64,485.89 601.92,469.35 602.01,495.33 602.11,489.05 602.20,478.86 602.30,480.50 602.58,491.66 602.67,463.33 602.77,455.34 602.86,456.12 602.95,455.85 603.24,454.62 603.33,486.61 603.42,486.81 603.52,488.23 603.61,473.61 603.89,472.79 603.99,485.80 604.08,484.02 604.18,480.47 604.27,464.44 604.55,457.55 604.65,452.44 604.74,479.35 604.83,481.35 604.93,481.21 605.30,469.86 605.40,465.56 605.49,456.43 605.59,446.70 605.87,453.66 605.96,456.93 606.06,435.47 606.15,460.32 606.24,452.85 606.53,452.45 606.62,450.39 606.71,428.60 606.81,437.32 606.90,423.20 607.18,414.66 607.28,417.67 607.37,396.64 607.47,396.04 607.56,396.76 607.84,400.65 607.94,398.46 608.03,392.46 608.12,409.00 608.22,441.98 608.50,430.48 608.59,452.29 608.69,464.29 608.78,468.07 608.88,469.21 609.16,468.54 609.25,449.41 609.35,465.29 609.44,480.95 609.53,487.94 609.82,478.56 609.91,493.79 610.00,490.24 610.10,499.07 610.19,495.46 610.47,500.00 610.57,493.79 610.66,489.86 610.76,485.62 610.85,473.39 611.13,467.90 611.32,456.40 611.41,451.68 611.51,450.56 611.79,448.27 611.88,438.76 611.98,434.06 612.07,437.24 612.17,444.57 612.45,412.76 612.54,413.00 612.64,414.37 612.73,410.60 612.82,418.36 613.11,406.40 613.20,397.35 613.29,407.85 613.39,377.04 613.48,449.26 613.76,498.11 613.86,493.44 613.95,485.24 614.05,473.22 614.14,478.86 614.42,478.86 614.61,493.00 614.70,493.16 614.80,489.84 615.08,489.49 615.17,478.34 615.27,481.93 615.36,476.18 615.46,473.18 615.74,464.37 615.83,475.09 615.93,460.02 616.02,474.95 616.11,466.73 616.40,460.85 616.49,455.60 616.58,453.38 616.68,451.70 616.77,464.91 617.05,464.53 617.15,484.62 617.24,484.56 617.34,482.44 617.43,467.60 617.71,471.40 617.81,470.08 617.90,485.70 617.99,482.08 618.09,479.97 618.37,469.37 618.46,477.72 618.56,480.45 618.65,473.88 618.75,467.54 619.03,468.27 619.12,463.47 619.22,476.37 619.31,470.29 619.40,439.86 619.69,438.47 619.78,441.37 619.87,442.53 619.97,438.65 620.06,436.29 620.34,435.68 620.53,436.06 620.63,446.72 620.72,490.78 621.00,468.74 621.10,490.08 621.19,491.77 621.28,471.06 621.38,472.78 621.66,479.14 621.75,481.02 621.85,473.59 621.94,465.46 622.04,469.81 622.32,483.00 622.41,458.69 622.51,452.41 622.60,456.35 622.69,438.46 622.98,438.20 623.07,442.28 623.16,432.31 623.26,436.79 623.35,439.68 623.63,434.34 623.73,467.78 623.82,472.33 623.92,476.45 624.01,467.77 624.29,474.31 624.39,457.20 624.48,456.00 624.57,446.61 624.67,447.74 624.95,429.07 625.04,432.64 625.14,434.32 625.23,432.24 625.33,437.63 625.61,430.20 625.70,445.95 625.80,460.02 625.89,470.04 625.98,475.54 626.27,447.15 626.36,444.58 626.45,446.71 626.55,476.20 626.64,477.24 626.92,488.06 627.02,485.50 627.11,483.30 627.21,453.99 627.30,450.32 627.58,438.54 627.68,432.70 627.77,433.47 627.86,433.07 628.24,432.60 628.33,432.71 628.43,446.38 628.52,493.69 628.62,494.46 628.90,492.23 628.99,491.22 629.09,476.13 629.18,476.62 629.27,481.76 629.56,488.42 629.65,476.71 629.74,481.18 629.84,473.80 629.93,479.61 630.21,473.57 630.31,467.67 630.40,471.23 630.50,469.06 630.59,464.61 630.87,464.39 631.06,468.84 631.15,470.75 631.25,487.63 631.53,487.63 631.72,478.00 631.81,482.80 631.91,480.39 632.19,467.40 632.28,466.78 632.38,465.23 632.47,474.15 632.56,467.78 632.85,467.27 633.03,470.92 633.13,478.80 633.22,479.51 633.50,486.29 633.60,479.38 633.69,462.96 633.79,468.20 633.88,460.37 634.16,472.85 634.26,478.57 634.35,479.76 634.44,480.73 634.54,478.17 634.82,477.82 634.91,475.24 635.01,480.54 635.10,477.59 635.20,480.19 635.48,477.56 635.57,481.06 635.67,477.56 635.76,481.56 635.85,476.27 636.14,474.48 636.32,466.12 636.42,475.61 636.51,472.48 636.79,466.93 636.89,474.89 636.98,462.21 637.08,475.95 637.17,475.52 637.45,479.83 637.55,479.23 637.64,478.71 637.73,480.93 637.83,473.01 638.11,470.53 638.20,474.31 638.30,466.44 638.39,467.92 638.49,466.85 638.77,461.16 638.86,488.60 638.96,479.05 639.05,482.98 639.14,481.23 639.43,477.63 639.52,472.19 639.61,461.32 639.71,449.20 639.80,449.94 640.08,456.06 640.18,458.46 640.27,466.07 640.37,466.83 640.46,463.14 640.74,467.63 640.84,472.77 640.93,480.47 641.02,489.37 641.12,489.25 641.49,476.79 641.59,477.52 641.68,469.32 641.78,472.72 642.06,463.46 642.15,454.34 642.25,467.72 642.34,460.35 642.43,470.22 642.72,464.21 642.81,476.50 642.90,470.56 643.00,469.34 643.09,464.22 643.37,472.35 643.47,466.57 643.56,465.53 643.66,468.76 643.75,466.35 644.03,453.82 644.13,439.93 644.22,492.57 644.31,492.71 644.41,492.03 644.69,488.14 644.78,490.76 644.88,491.21 644.97,486.92 645.07,470.91 645.35,462.67 645.54,455.28 645.63,448.34 645.72,430.82 646.01,433.29 646.10,432.96 646.19,427.51 646.29,415.41 646.38,463.69 646.66,470.69 646.76,442.95 646.85,453.79 646.95,457.59 647.04,459.11 647.32,427.94 647.42,439.74 647.51,417.94 647.60,412.84 647.70,405.29 647.98,411.83 648.07,448.91 648.17,426.59 648.26,460.86 648.36,467.10 648.64,486.10 648.73,486.08 648.92,496.30 649.01,493.83 649.30,494.03 649.39,483.61 649.48,474.30 649.58,477.36 649.67,454.27 649.95,452.77 650.05,447.83 650.14,430.88 650.24,425.73 650.33,426.01 650.61,422.12 650.71,436.03 650.80,427.27 650.89,426.71 650.99,438.29 651.27,449.72 651.36,444.92 651.46,450.37 651.55,455.37 651.65,452.09 651.93,435.41 652.02,442.76 652.12,446.81 652.21,483.27 652.30,477.34 652.59,458.44 652.68,455.46 652.77,448.28 652.87,486.29 652.96,485.96 653.24,494.72 653.34,477.12 653.43,482.10 653.53,485.85 653.62,490.69 653.90,490.58 654.00,491.32 654.09,477.64 654.18,464.23 654.28,460.17 654.56,459.59 654.75,474.88 654.84,470.08 654.94,483.81 655.22,471.96 655.31,469.10 655.41,469.49 655.50,469.03 655.59,461.19 655.88,449.09 655.97,446.86 656.06,457.12 656.16,463.92 656.25,432.61 656.53,454.49 656.63,457.27 656.72,454.03 656.82,458.68 656.91,455.12 657.19,454.44 657.29,454.14 657.38,455.76 657.47,456.68 657.57,486.03 657.85,485.49 657.94,482.76 658.04,471.46 658.13,470.94 658.23,464.19 658.51,460.45 658.60,460.93 658.70,459.89 658.79,458.17 658.88,456.72 659.17,452.04 659.26,448.21 659.35,466.49 659.45,464.77 659.54,462.05 659.82,473.16 659.92,468.81 660.01,474.78 660.11,480.39 660.20,472.70 660.48,471.82 660.58,469.19 660.67,467.45 660.76,486.32 660.86,484.56 661.14,481.49 661.23,482.25 661.33,471.56 661.42,454.10 661.52,455.70 661.80,427.92 661.89,408.85 661.99,409.79 662.08,409.42 662.46,409.76 662.55,409.38 662.64,456.80 662.74,447.81 662.83,457.47 663.11,488.81 663.21,492.45 663.30,489.59 663.40,483.59 663.49,484.06 663.77,478.43 663.87,482.67 663.96,479.51 664.05,486.91 664.15,472.50 664.43,457.26 664.52,462.87 664.62,462.26 664.71,473.51 664.81,475.85 665.09,475.85 665.28,480.56 665.37,479.96 665.46,494.64 665.75,494.64 665.93,483.33 666.03,483.66 666.12,481.15 666.40,474.96 666.50,485.43 666.59,493.26 666.69,490.42 666.78,483.75 667.06,481.87 667.25,465.63 667.34,460.57 667.44,438.92 667.72,371.52 667.81,359.21 667.91,372.01 668.00,341.86 668.10,314.53 668.38,318.97 668.47,338.22 668.57,328.82 668.66,346.54 668.75,384.16 669.04,452.62 669.13,412.59 669.22,430.24 669.32,497.69 669.41,496.36 669.69,494.14 669.79,495.13 669.88,489.92 669.98,472.84 670.07,479.95 670.35,479.34 670.54,481.56 670.63,485.22 670.73,467.19 671.01,442.07 671.10,456.98 671.20,465.63 671.29,490.92 671.39,486.20 671.67,480.27 671.76,476.88 671.86,470.66 671.95,445.79 672.04,374.37 672.33,364.06 672.42,369.72 672.51,354.26 672.61,354.96 672.70,356.04 672.98,370.22 673.08,363.35 673.17,364.39 673.27,403.67 673.36,445.74 673.64,390.80 673.74,443.69 673.83,466.98 673.92,437.18 674.02,437.18 674.39,474.84 674.49,453.87 674.58,452.76 674.68,488.69 674.96,483.15 675.05,444.91 675.15,449.24 675.24,430.20 675.33,433.21 675.62,422.78 675.71,389.49 675.80,382.64 675.90,410.90 675.99,429.41 676.27,442.01 676.37,462.86 676.46,466.33 676.56,447.30 676.65,455.89 676.93,474.94 677.03,470.35 677.12,490.28 677.21,496.31 677.31,485.66 677.59,484.42 677.68,484.67 677.78,475.53 677.87,461.96 677.97,469.43 678.25,465.83 678.34,480.00 678.44,468.21 678.53,474.92 678.62,491.09 678.91,483.07 679.00,482.53 679.09,477.57 679.19,473.79 679.28,472.05 679.56,469.31 679.75,474.70 679.85,488.75 679.94,476.23 680.22,468.04 680.32,462.94 680.41,449.89 680.50,464.90 680.60,462.81 680.88,438.55 680.97,427.93 681.07,411.99 681.16,399.23 681.26,403.52 681.54,405.94 681.63,407.34 681.73,404.84 681.82,417.47 681.91,426.68 682.20,465.30 682.29,460.51 682.38,487.55 682.48,476.42 682.57,473.80 682.85,466.54 682.95,489.43 683.04,488.94 683.23,473.34 683.51,462.67 683.61,452.47 683.70,473.30 683.79,467.04 683.89,461.92 684.17,452.89 684.26,440.89 684.36,436.13 684.45,446.15 684.55,450.91 684.83,454.23 684.92,460.89 685.02,440.97 685.11,435.94 685.20,451.39 685.49,472.91 685.58,468.55 685.67,462.71 685.77,449.69 685.86,436.77 686.14,429.14 686.24,422.36 686.33,425.21 686.43,439.60 686.52,456.39 686.80,456.86 686.90,454.39 686.99,476.00 687.08,476.75 687.18,488.61 687.46,491.22 687.55,479.31 687.65,477.40 687.74,463.74 687.84,444.20 688.12,429.09 688.21,422.64 688.31,405.22 688.40,410.73 688.49,410.81 688.78,407.56 688.96,433.75 689.06,459.95 689.15,470.32 689.43,464.43 689.53,473.22 689.62,478.06 689.72,470.33 689.81,461.57 690.09,481.44 690.19,472.25 690.28,473.84 690.37,454.18 690.47,444.36 690.75,423.79 690.84,420.21 690.94,372.37 691.03,343.77 691.13,343.62 691.41,336.43 691.50,340.71 691.60,341.85 691.69,369.74 691.78,387.15 692.07,402.38 692.16,399.45 692.25,415.98 692.35,429.64 692.44,377.68 692.72,375.19 692.82,329.67 692.91,329.04 693.01,359.44 693.10,368.58 693.38,360.02 693.48,364.99 693.57,444.43 693.66,412.65 693.76,456.91 694.04,482.84 694.13,475.87 694.23,455.76 694.32,414.89 694.42,427.65 694.70,407.26 694.79,387.27 694.89,348.52 694.98,360.59 695.07,383.85 695.36,437.29 695.45,432.13 695.54,438.39 695.64,409.00 695.73,415.86 696.01,474.97 696.11,479.67 696.20,480.18 696.30,479.25 696.67,454.21 696.77,446.41 696.86,407.04 696.95,415.05 697.05,383.37 697.33,332.70 697.42,393.31 697.52,368.98 697.71,370.99 697.99,323.70 698.08,318.89 698.18,304.21 698.27,307.40 698.36,342.92 698.65,372.81 698.74,360.00 698.83,401.40 698.93,419.19 699.02,456.70 699.30,498.14 699.40,498.14 699.59,451.60 699.68,446.40 699.96,434.19 700.06,434.19 700.24,498.15 700.34,487.40 700.62,477.19 700.71,477.48 700.81,460.22 700.90,451.78 701.00,449.04 701.28,468.39 701.37,452.33 701.47,458.78 701.56,453.05 701.65,436.31 701.94,436.31 702.12,473.53 702.22,466.47 702.31,451.19 702.59,473.75 702.69,486.69 702.78,480.32 702.88,473.61 702.97,474.11 703.25,468.13 703.35,464.18 703.44,460.68 703.53,489.64 703.63,491.61 703.91,492.87 704.00,484.20 704.10,482.79 704.19,478.61 704.29,477.42 704.57,475.48 704.76,458.34 704.85,463.48 704.94,443.99 705.23,437.64 705.32,438.85 705.41,441.96 705.51,444.78 705.60,438.27 705.88,440.32 705.98,445.26 706.07,465.21 706.17,484.04 706.26,488.56 706.54,476.78 706.64,473.71 706.73,471.77 706.82,476.78 706.92,466.32 707.20,464.35 707.29,461.69 707.39,465.55 707.48,428.19 707.58,468.58 707.86,475.58 707.95,470.17 708.05,488.23 708.14,494.34 708.23,489.46 708.52,480.31 708.61,478.72 708.70,460.92 708.80,470.84 708.89,465.18 709.17,460.91 709.27,472.54 709.36,466.32 709.46,469.39 709.55,459.00 709.83,461.09 709.93,453.46 710.02,456.13 710.11,453.27 710.21,450.88 710.58,429.31 710.68,423.94 710.77,424.19 710.87,428.88 711.15,382.69 711.24,382.99 711.34,393.05 711.43,388.76 711.52,363.99 711.81,361.49 711.90,395.77 711.99,395.28 712.09,394.56 712.18,387.71 712.46,449.53 712.56,417.60 712.65,398.72 712.75,389.65 712.84,389.18 713.12,409.41 713.22,390.45 713.31,405.64 713.40,428.13 713.50,434.67 713.78,434.67 713.97,455.00 714.06,450.29 714.16,479.01 714.44,497.61 714.53,482.54 714.63,487.57 714.72,482.03 714.81,474.19 715.10,458.66 715.19,455.57 715.28,475.06 715.38,470.36 715.47,488.62 715.75,492.74 715.85,477.98 715.94,470.97 716.04,460.41 716.13,465.05 716.41,466.21 716.51,489.59 716.60,491.40 716.69,483.14 716.79,480.78 717.07,465.79 717.16,473.24 717.26,467.71 717.35,463.56 717.73,478.10 717.82,477.33 717.92,470.41 718.01,471.77 718.10,464.10 718.39,454.89 718.48,466.73 718.57,461.43 718.67,452.71 718.76,453.75 719.04,397.85 719.14,384.68 719.23,365.82 719.33,384.10 719.42,370.05 719.70,373.52 719.80,378.80 719.89,404.95 719.98,411.69 720.08,426.36 720.36,485.76 720.45,475.12 720.55,474.99 720.64,437.77 720.74,445.27 721.02,462.44 721.11,428.23 721.21,476.45 721.30,484.01 721.39,463.72 721.68,441.45 721.77,453.63 721.86,440.43 721.96,439.68 722.05,493.41 722.33,484.41 722.43,485.92 722.52,483.23 722.62,467.24 722.71,465.64 722.99,464.36 723.18,471.87 723.27,459.15 723.37,458.06 723.65,467.33 723.74,454.11 723.84,439.56 723.93,434.35 724.03,422.71 724.31,429.64 724.40,414.33 724.50,401.56 724.59,406.45 724.68,425.42 724.97,421.94 725.06,444.06 725.15,426.92 725.25,428.46 725.34,459.85 725.62,446.17 725.72,458.62 725.81,484.32 725.91,468.70 726.00,445.01 726.28,449.51 726.38,483.71 726.47,476.86 726.56,475.05 726.66,462.74 726.94,466.31 727.03,450.89 727.13,464.27 727.22,456.84 727.32,474.03 727.60,462.72 727.69,476.39 727.79,489.16 727.88,477.54 727.97,473.50 728.26,456.87 728.35,470.51 728.44,463.00 728.54,477.63 728.63,473.02 728.91,464.60 729.01,464.54 729.10,458.65 729.20,458.58 729.29,451.97 729.57,459.20 729.67,456.58 729.76,459.11 729.85,464.16 729.95,449.27 730.23,451.02 730.32,445.94 730.42,465.57 730.51,473.46 730.61,476.31 730.89,449.46 730.98,449.62 731.08,439.17 731.17,438.99 731.55,467.23 731.64,480.43 731.73,481.13 731.83,487.56 731.92,476.39 732.20,490.73 732.30,495.05 732.39,495.19 732.49,488.69 732.58,495.11 732.86,487.51 732.96,488.71 733.05,492.24 733.14,489.31 733.24,483.44 733.52,479.88 733.61,476.21 733.71,475.64 733.90,471.69 734.18,484.19 734.27,483.28 734.37,483.21 734.55,479.23 734.84,485.63 734.93,484.70 735.02,480.68 735.12,479.27 735.21,486.48 735.49,455.07 735.59,456.32 735.68,457.69 735.78,436.70 735.87,413.62 736.15,413.22 736.34,412.16 736.43,405.83 736.53,423.84 736.81,466.63 736.90,444.40 737.00,460.37 737.09,457.08 737.19,495.82 737.47,488.94 737.56,471.22 737.66,474.43 737.75,470.08 737.84,486.36 738.13,423.57 738.22,368.28 738.31,349.44 738.41,292.26 738.50,285.33 738.78,285.33 738.97,264.74 739.07,276.60 739.16,299.14 739.44,283.35 739.54,328.23 739.63,307.95 739.72,248.72 739.82,239.26 740.10,116.54 740.19,152.44 740.29,70.00 740.38,102.86 740.48,110.44 740.76,205.07 740.85,140.53 740.95,204.31 741.04,348.78 741.13,224.15 741.42,423.88 741.51,345.21 741.60,445.54 741.70,427.85 741.79,476.22 742.07,485.65 742.17,429.35 742.26,444.02 742.36,374.27 742.45,435.58 742.73,389.69 742.83,411.48 742.92,477.99 743.01,468.80 743.11,497.51 743.39,475.83 743.48,477.42 743.58,453.14 743.67,468.35 743.77,468.35 744.14,419.84 744.24,446.03 744.33,422.77 744.42,396.57 744.71,414.64 744.80,479.69 744.89,439.84 744.99,456.36 745.08,435.15 745.36,417.08 745.46,439.34 745.55,390.83 745.65,417.35 745.74,482.69 746.02,482.01 746.12,473.08 746.21,474.21 746.30,458.16 746.40,431.95 746.68,428.86 746.77,459.86 746.87,483.81 746.96,466.15 747.06,476.76 747.34,462.62 747.43,476.18 747.53,454.56 747.62,479.01 747.71,472.67 748.00,472.57 748.18,472.57 748.28,478.38 748.37,459.64 748.65,462.14 748.75,458.35 748.84,440.72 748.94,440.63 749.03,413.80 749.31,410.70 749.41,410.86 749.50,397.11 749.59,487.14 749.69,474.33 749.97,465.90 750.06,449.56 750.16,449.47 750.25,449.50 750.35,447.71 750.63,438.20 750.72,438.47 750.82,471.37 750.91,458.47 751.00,497.16 751.29,493.95 751.38,480.07 751.47,486.65 751.57,475.06 751.66,474.37 752.04,472.96 752.13,455.48 752.23,443.81 752.32,423.08 752.60,458.66 752.70,447.05 752.79,439.38 752.88,448.16 752.98,442.78 753.26,413.44 753.35,425.11 753.45,420.88 753.54,439.56 753.64,468.64 753.92,440.61 754.01,455.09 754.11,454.75 754.20,450.01 754.29,452.12 754.58,436.22 754.67,427.51 754.76,426.16 754.86,431.24 754.95,447.20 755.23,451.95 755.33,473.61 755.42,458.25 755.52,470.51 755.61,475.91 755.89,468.40 755.99,470.85 756.08,480.00 756.17,476.18 756.27,480.18 756.55,478.31 756.64,417.86 756.74,400.96 756.83,404.38 756.93,383.25 757.21,377.10 757.30,359.36 757.40,328.66 757.49,398.10 757.58,402.90 757.87,395.06 758.05,429.46 758.15,452.30 758.24,454.72 758.52,432.18 758.62,416.83 758.71,428.15 758.81,440.09 758.90,458.27 759.18,464.80 759.28,448.41 759.37,486.50 759.46,492.63 759.56,489.81 759.84,471.62 759.93,475.19 760.03,473.90 760.12,445.52 760.22,488.01 760.50,464.75 760.59,481.73 760.69,463.85 760.78,458.41 760.87,442.78 761.16,400.95 761.25,393.53 761.34,372.99 761.44,386.90 761.53,377.42 761.81,390.70 761.91,387.28 762.00,396.35 762.10,394.45 762.19,394.03 762.47,425.74 762.57,425.75 762.66,476.84 762.75,464.99 762.85,495.29 763.13,498.48 763.22,492.08 763.32,469.14 763.41,447.04 763.51,437.82 763.79,452.71 763.88,484.37 763.98,469.60 764.07,482.38 764.16,471.53 764.45,461.01 764.54,471.66 764.63,487.77 764.73,480.76 764.82,487.88 765.10,491.34 765.20,484.20 765.29,488.39 765.39,488.04 765.76,481.53 765.86,474.08 765.95,476.69 766.04,477.19 766.14,454.97 766.42,450.17 766.51,435.52 766.61,469.07 766.70,465.46 766.80,475.81 767.08,474.75 767.17,463.08 767.27,463.29 767.36,458.36 767.45,461.42 767.74,467.18 767.83,471.19 767.92,471.36 768.02,463.82 768.11,463.24 768.49,465.05 768.58,457.33 768.68,442.76 768.77,438.74 769.15,459.43 769.24,478.13 769.33,458.76 769.43,447.75 769.71,458.03 769.80,460.95 769.90,447.79 769.99,442.88 770.09,450.90 770.37,450.51 770.56,406.92 770.65,397.24 770.74,414.13 771.03,408.97 771.12,416.87 771.21,470.82 771.31,460.68 771.40,488.74 771.68,477.98 771.78,463.99 771.87,483.49 771.97,474.76 772.06,473.27 772.34,450.07 772.44,449.28 772.53,448.32 772.62,414.85 772.72,402.10 773.00,402.10 773.19,404.17 773.28,371.10 773.38,363.89 773.66,369.08 773.75,371.52 773.85,343.65 773.94,398.15 774.03,385.62 774.32,348.53 774.41,374.95 774.50,411.91 774.60,461.16 774.69,444.66 774.97,491.74 775.07,466.01 775.16,466.95 775.26,433.81 775.35,444.34 775.63,428.44 775.73,421.25 775.82,412.65 775.91,466.22 776.01,460.18 776.29,441.67 776.38,466.36 776.48,490.61 776.57,494.21 776.67,476.54 776.95,485.24 777.04,496.45 777.14,496.33 777.23,481.97 777.32,481.30 777.70,451.44 777.79,457.40 777.89,446.15 777.98,443.64 778.26,455.74 778.36,445.69 778.45,454.52 778.55,432.16 778.64,428.26 778.92,442.41 779.02,451.01 779.11,428.43 779.20,448.42 779.30,428.47 779.58,396.03 779.67,402.15 779.77,381.20 779.86,371.76 779.96,389.05 780.24,397.74 780.33,420.40 780.43,420.20 780.52,410.69 780.61,393.87 780.90,442.10 780.99,438.53 781.08,487.90 781.18,489.79 781.27,465.24 781.55,471.43 781.65,484.43 781.74,488.35 781.84,475.03 781.93,486.42 782.21,471.06 782.31,472.70 782.40,470.40 782.49,470.78 782.59,465.27 782.87,464.68 783.06,462.54 783.15,478.86 783.25,455.06 783.53,461.04 783.62,461.90 783.72,465.46 783.81,456.88 783.90,461.60 784.19,451.00 784.28,460.82 784.37,470.25 784.47,464.33 784.56,489.39 784.84,490.05 784.94,487.00 785.03,487.12 785.13,473.02 785.22,474.65 785.50,465.96 785.60,461.76 785.69,463.53 785.78,469.69 785.88,451.94 786.16,445.62 786.35,451.44 786.44,460.84 786.54,442.06 786.82,430.48 786.91,429.15 787.01,431.86 787.10,447.05 787.19,465.38 787.48,479.94 787.57,476.14 787.66,466.86 787.76,468.01 787.85,457.30 788.13,457.64 788.23,475.10 788.32,467.95 788.42,457.98 788.51,460.86 788.79,455.35 788.89,441.04 788.98,430.95 789.07,418.90 789.17,426.03 789.45,429.45 789.54,441.60 789.64,443.01 789.73,452.74 789.83,448.33 790.11,455.48 790.20,471.02 790.30,487.12 790.39,489.95 790.48,490.06 790.77,477.19 790.86,475.17 790.95,468.17 791.05,475.08 791.14,459.01 791.42,452.66 791.52,454.18 791.61,456.87 791.71,448.18 791.80,431.05 792.18,435.81 792.27,447.09 792.36,450.14 792.46,453.95 792.74,450.28 792.83,434.13 792.93,416.80 793.02,411.77 793.12,423.48 793.40,437.60 793.49,412.30 793.59,395.72 793.68,375.42 793.77,372.90 794.06,379.40 794.15,419.15 794.24,427.91 794.34,433.73 794.43,425.20 794.71,455.81 794.81,476.74 794.90,475.54 795.00,462.37 795.09,470.39 795.37,479.05 795.47,492.42 795.56,491.23 795.65,479.24 795.75,471.65 796.03,467.23 796.12,459.61 796.22,463.17 796.31,461.42 796.41,469.61 796.69,468.14 796.78,471.45 796.88,482.89 796.97,473.87 797.06,478.94 797.35,478.24 797.44,477.32 797.53,467.64 797.63,459.86 797.72,449.19 798.00,302.52 798.10,292.13 798.19,298.83 798.29,286.73 798.38,267.35 798.66,277.08 798.76,265.90 798.85,270.63 798.94,263.77 799.04,265.81 803.27,385.56 803.36,385.57 803.46,405.73 803.55,379.19 803.64,362.21 803.93,356.08 804.02,310.63 804.11,295.72 804.21,305.39 804.30,288.52 804.58,288.52 804.77,354.55 804.87,376.28 804.96,416.47 805.24,406.11 805.34,451.61 805.43,455.16 805.52,489.54 805.62,473.14 805.90,429.56 805.99,418.11 806.09,400.59 806.18,447.57 806.28,428.73 806.56,437.11 806.65,401.50 806.74,340.04 806.84,369.06 806.93,419.23 807.21,419.27 807.31,365.66 807.40,366.42 807.50,405.79 807.59,407.31 807.87,369.28 808.06,408.52 808.15,368.29 808.25,337.45 808.53,317.68 808.62,345.99 808.72,316.30 808.81,340.21 808.91,368.48 809.19,435.08 809.28,448.09 809.38,401.59 809.47,426.14 809.56,459.09 809.85,499.88 809.94,498.39 810.03,486.76 810.13,486.53 810.22,463.93 810.50,475.86 810.60,446.83 810.69,461.65 810.79,427.03 810.88,415.79 811.16,378.36 811.26,346.25 811.35,367.35 811.44,377.18 811.54,382.48 811.82,352.37 811.91,392.97 812.01,408.07 812.10,391.80 812.20,391.04 812.48,420.08 812.57,395.39 812.67,351.86 812.76,386.06 812.85,372.93 813.23,335.06 813.32,350.26 813.42,375.99 813.51,400.50 813.79,332.93 813.89,386.65 813.98,371.77 814.08,320.77 814.17,373.16 814.45,350.02 814.55,345.22 814.64,287.75 814.73,344.08 814.83,366.22 815.11,439.98 815.20,413.41 815.30,455.90 815.39,457.79 815.49,407.38 815.77,429.99 815.86,380.98 815.96,455.75 816.05,461.16 816.14,468.37 816.43,456.54 816.52,496.37 816.61,491.75 816.71,468.22 816.80,384.83 817.08,315.95 817.27,333.75 817.37,258.29 817.46,290.47 817.74,284.90 817.84,267.16 817.93,278.93 818.02,290.95 818.12,341.84 818.40,417.63 818.49,420.14 818.59,387.46 818.68,453.38 818.78,434.24 819.06,434.24 819.25,416.99 819.34,440.35 819.43,388.29 819.72,395.02 819.81,436.03 819.90,446.68 820.00,461.03 820.09,472.11 820.37,471.08 820.56,462.50 820.66,433.72 820.75,428.17 821.03,462.52 821.13,471.53 821.22,475.90 821.31,483.30 821.41,463.83 821.69,477.32 821.78,452.44 821.88,435.82 821.97,415.23 822.07,446.24 822.35,452.70 822.44,481.25 822.54,468.31 822.63,465.12 822.72,457.90 823.01,458.75 823.10,462.08 823.19,432.92 823.29,433.76 823.38,441.93 823.66,433.83 823.76,463.79 823.85,420.74 823.95,404.25 824.04,350.87 824.32,328.90 824.42,320.80 824.51,335.30 824.60,311.11 824.70,330.23 824.98,372.16 825.07,359.61 825.17,355.11 825.26,345.64 825.36,412.98 825.64,429.04 825.73,433.28 825.83,415.87 825.92,404.22 826.01,418.93 826.30,416.81 826.48,376.25 826.58,337.98 826.67,286.11 826.95,262.18 827.05,340.84 827.14,353.90 827.24,370.80 827.33,367.23 827.61,357.28 827.71,375.09 827.80,403.15 827.89,429.48 827.99,446.32 828.27,448.02 828.36,419.86 828.46,381.00 828.55,419.27 828.65,421.95 828.93,385.33 829.02,337.47 829.12,334.79 829.21,346.56 829.30,408.33 829.59,431.09 829.68,461.37 829.77,467.79 829.87,427.45 829.96,476.43 830.24,452.22 830.34,442.37 830.43,443.21 830.53,426.18 830.62,390.67 830.90,391.83 831.00,369.43 831.09,382.57 831.18,405.42 831.28,370.19 831.56,387.68 831.65,387.37 831.75,439.69 831.84,473.18 831.94,470.79 832.22,464.94 832.31,452.42 832.41,493.76 832.50,462.35 832.59,439.85 832.88,448.11 832.97,421.28 833.06,453.87 833.16,455.08 833.25,457.62 833.53,474.68 833.63,440.83 833.72,423.19 833.82,419.17 834.19,448.79 834.29,452.22 834.38,405.67 834.47,385.09 834.57,384.46 834.85,396.14 834.94,420.74 835.04,425.00 835.13,386.74 835.23,394.02 835.51,374.36 835.60,347.87 835.70,346.83 835.79,404.24 835.88,412.87 836.17,434.36 836.26,433.98 836.35,414.71 836.45,448.48 836.54,446.96 836.82,446.64 837.01,485.97 837.11,457.98 837.20,460.10 837.48,460.10 837.67,465.21 837.76,489.13 837.86,474.91 838.14,476.64 838.23,470.63 838.33,460.32 838.42,456.50 838.52,448.57 838.80,446.79 838.99,468.72 839.08,490.63 839.17,482.53 839.46,461.97 839.55,466.66 839.64,470.10 839.74,445.69 839.83,442.22 840.11,477.70 840.21,468.10 840.30,444.69 840.40,415.06 840.49,440.36 840.77,433.23 840.87,399.51 840.96,423.97 841.05,419.66 841.15,427.17 841.43,405.86 841.52,387.81 841.62,373.22 841.71,405.73 841.81,416.29 842.18,452.37 842.28,453.83 842.37,437.40 842.46,453.75 842.75,446.51 842.84,449.71 842.93,452.61 843.03,441.18 843.12,422.01 843.40,424.51 843.50,443.95 843.59,426.99 843.69,459.59 843.78,480.23 844.06,483.53 844.16,473.94 844.25,482.57 844.34,460.15 844.44,473.62 844.72,470.87 844.81,457.89 844.91,481.68 845.00,462.96 845.10,471.26 845.38,481.38 845.47,492.97 845.57,469.70 845.66,455.18 845.75,439.19 846.04,445.38 846.13,455.70 846.22,467.14 846.32,457.44 846.41,455.33 846.79,425.43 846.88,434.82 846.98,417.03 847.07,420.07 847.35,421.75 847.45,415.72 847.54,419.79 847.63,424.84 847.73,423.90 848.01,428.97 848.10,463.74 848.20,470.81 848.29,451.57 848.39,440.73 848.67,444.25 848.76,462.83 848.86,478.59 848.95,485.94 849.04,471.69 849.33,470.05 849.42,477.93 849.51,471.10 849.61,468.03 849.70,472.61 849.98,466.33 850.08,473.17 850.17,466.37 850.27,445.82 850.36,449.03 850.64,448.64 850.74,466.22 850.83,478.27 850.92,481.71 851.02,456.57 851.30,456.57 851.49,475.51 851.58,465.20 851.68,462.51 851.96,464.83 852.05,471.71 852.15,489.29 852.24,480.60 852.33,476.37 852.62,454.74 852.71,443.60 852.80,437.65 852.90,424.98 852.99,435.33 853.27,435.33 853.46,469.68 853.56,456.66 853.65,475.23 853.93,486.96 854.03,464.42 854.12,469.42 854.21,472.98 854.31,458.08 854.59,452.36 854.78,462.42 854.87,477.33 854.97,485.40 855.25,481.08 855.34,481.33 855.44,475.61 855.53,449.02 855.62,455.27 855.91,440.31 856.00,437.88 856.09,438.38 856.19,468.24 856.28,448.87 856.56,450.50 856.66,439.11 856.75,440.12 856.85,439.31 856.94,403.60 857.22,401.09 857.32,396.77 857.41,425.49 857.50,411.94 857.60,425.41 857.88,410.97 857.97,426.77 858.07,440.78 858.16,433.64 858.26,442.90 858.54,425.05 858.63,444.48 858.73,464.97 858.82,482.54 858.91,487.12 859.20,470.11 859.29,473.83 859.38,449.91 859.48,487.89 859.57,487.36 859.85,478.84 859.95,460.05 860.04,450.82 860.14,434.96 860.23,430.68 860.61,430.41 860.70,429.65 860.79,428.35 860.89,423.98 861.17,408.96 861.26,417.08 861.36,411.50 861.45,398.03 861.55,427.31 861.83,419.87 861.92,424.34 862.02,441.72 862.11,468.11 862.20,466.71 862.49,462.85 862.58,483.28 862.67,480.71 862.77,467.02 862.86,466.09 863.14,459.36 863.24,488.39 863.33,473.44 863.43,469.81 863.52,442.54 863.80,434.41 863.90,424.68 863.99,389.19 864.08,376.44 864.18,391.94 864.46,373.11 864.55,375.02 864.65,393.23 864.74,413.54 864.84,433.52 865.12,432.06 865.21,412.39 865.31,458.28 865.40,480.34 865.49,486.12 865.78,486.66 865.87,489.70 865.96,487.43 866.06,478.35 866.15,478.82 866.43,479.22 866.53,477.08 866.62,478.73 866.72,493.13 866.81,477.20 867.09,485.68 867.19,468.26 867.28,472.14 867.37,481.11 867.47,472.00 867.75,452.60 867.84,457.95 867.94,450.17 868.13,449.92 868.41,451.26 868.50,456.65 868.60,456.82 868.69,459.48 868.78,459.88 869.07,477.64 869.16,482.30 869.25,492.93 869.35,488.66 869.44,488.86 869.72,489.32 869.82,487.05 869.91,476.39 870.01,476.60 870.10,463.23 870.38,450.03 870.48,435.10 870.57,462.29 870.66,439.39 870.76,437.92 871.13,425.80 871.23,424.09 871.32,421.97 871.42,428.66 871.79,462.41 871.89,478.36 871.98,485.22 872.07,485.67 872.36,472.04 872.45,477.90 872.54,473.98 872.64,470.69 872.73,470.61 873.11,472.53 873.20,481.11 873.30,470.54 873.39,451.32 873.67,449.22 873.77,444.65 873.86,439.47 873.95,438.11 874.05,454.64 874.33,441.64 874.42,451.93 874.52,477.51 874.61,473.58 874.71,460.79 874.99,463.99 875.08,458.12 875.18,444.38 875.27,441.12 875.36,427.59 875.65,423.99 875.74,456.06 875.83,442.70 875.93,439.32 876.02,448.62 876.40,458.51 876.49,472.12 876.59,457.16 876.68,462.60 876.96,454.68 877.06,454.98 877.15,463.59 877.24,451.08 877.34,416.75 877.62,419.84 877.71,442.73 877.81,432.28 877.90,412.80 878.00,443.74 878.28,456.54 878.37,442.39 878.47,455.19 878.56,467.79 878.65,486.42 878.94,477.73 879.03,479.61 879.12,453.37 879.22,446.06 879.31,446.94 879.59,451.71 879.69,450.41 879.78,448.97 879.88,445.14 880.25,431.14 880.35,445.32 880.44,420.51 880.53,434.85 880.63,384.14 880.91,382.25 881.00,374.48 881.10,389.08 881.19,363.83 881.29,392.25 881.57,414.43 881.66,408.66 881.76,428.14 881.85,440.21 881.94,473.82 882.23,469.43 882.32,452.94 882.41,453.55 882.51,459.36 882.60,439.55 882.88,436.96 882.98,465.53 883.07,488.40 883.17,490.20 883.26,489.58 883.54,479.31 883.64,482.31 883.73,487.57 883.82,486.57 883.92,483.11 884.20,481.09 884.29,477.72 884.39,455.41 884.48,456.21 884.58,457.87 884.86,443.90 884.95,443.73 885.05,444.50 885.14,457.50 885.23,408.87 885.61,406.97 885.70,423.79 885.80,437.41 885.89,443.08 886.17,449.56 886.27,453.53 886.36,440.31 886.46,444.69 886.55,446.15 886.83,475.59 886.93,476.16 887.02,458.89 887.11,457.22 887.21,457.40 887.49,440.66 887.58,435.26 887.77,454.97 887.87,456.61 888.15,473.77 888.24,466.01 888.34,474.05 888.43,472.03 888.52,448.94 888.81,451.74 888.90,410.37 888.99,392.74 889.18,369.29 889.46,362.09 889.56,361.95 889.65,325.11 889.75,335.55 889.84,321.98 890.12,345.11 890.22,326.50 890.31,379.08 890.40,378.25 890.50,346.74 890.78,302.85 890.87,307.45 890.97,345.24 891.06,369.35 891.16,353.50 891.44,355.98 891.53,383.43 891.63,339.46 891.72,389.21 891.81,445.69 892.10,481.07 892.19,473.62 892.28,498.19 892.38,487.54 892.47,490.66 892.75,488.36 892.85,477.32 892.94,476.65 893.04,451.32 893.13,453.10 893.41,415.10 893.51,414.42 893.60,398.71 893.69,397.51 893.79,380.36 894.07,405.03 894.16,398.36 894.26,418.79 894.35,409.35 894.45,383.19 894.82,440.17 894.92,443.02 895.01,449.95 895.10,491.14 895.39,489.26 895.48,488.06 895.57,473.21 895.67,474.52 895.76,467.66 896.04,477.09 896.14,474.21 896.23,488.66 896.33,437.84 896.42,443.45 896.70,437.60 896.80,435.02 896.89,433.72 896.98,414.70 897.08,420.83 897.36,423.73 897.45,434.04 897.55,427.12 897.64,456.98 897.74,443.69 898.02,460.01 898.11,451.94 898.21,439.89 898.30,439.96 898.39,433.80 898.68,422.15 898.77,457.65 898.86,456.87 898.96,447.86 899.05,442.26 899.33,437.40 899.43,436.15 899.52,462.43 899.62,455.76 899.71,446.92 899.99,445.94 900.09,428.54 900.18,441.53 900.27,472.43 900.37,454.92 900.65,467.17 900.74,454.97 900.84,432.34 900.93,406.12 901.03,405.99 901.31,411.18 901.40,423.24 901.50,430.95 901.59,438.76 901.68,478.61 901.97,470.23 902.06,470.65 902.15,472.19 902.25,469.26 902.34,462.97 902.62,456.81 902.72,453.95 902.81,467.00 903.00,456.85 903.28,427.48 903.38,428.17 903.47,392.11 903.56,387.11 903.66,377.88 903.94,392.80 904.03,409.14 904.13,387.53 904.22,398.69 904.32,395.94 904.60,394.09 904.69,400.34 904.79,453.54 904.88,471.94 904.97,459.23 905.26,444.04 905.35,419.89 905.54,418.36 905.63,433.28 905.91,456.89 906.01,466.29 906.20,469.38 906.29,451.67 906.57,435.41 906.67,453.52 906.76,456.76 906.95,465.00 907.23,471.87 907.32,472.42 907.42,451.30 907.51,453.17 907.61,430.83 907.98,420.09 908.08,402.45 908.17,401.48 908.26,408.14 908.55,463.69 908.64,461.19 908.73,464.79 908.83,452.33 908.92,454.62 909.20,468.25 909.30,458.70 909.39,452.34 909.49,443.73 909.58,443.54 909.86,411.12 909.96,414.45 910.05,395.64 910.14,369.61 910.24,356.17 910.61,334.33 910.71,332.05 910.80,307.40 910.90,333.22 911.18,325.92 911.27,328.89 911.37,321.56 911.46,350.79 911.55,331.21 911.84,359.78 911.93,365.66 912.02,349.42 912.12,406.44 912.21,392.09 912.49,457.70 912.59,471.69 912.68,456.76 912.78,480.59 912.87,436.67 913.15,413.64 913.25,437.23 913.34,423.68 913.43,355.96 913.53,268.98 913.81,228.59 913.90,205.52 914.00,230.08 914.09,243.52 914.19,277.61 914.47,280.41 914.56,270.19 914.66,258.12 914.75,351.45 914.84,460.87 915.13,459.59 915.22,492.48 915.31,367.09 915.41,438.34 915.50,420.73 915.78,414.35 915.88,409.22 915.97,455.45 916.07,454.00 916.44,493.81 916.54,484.40 916.63,479.73 916.72,467.84 916.82,462.61 917.10,462.58 917.19,460.15 917.29,461.41 917.38,467.42 917.48,447.50 917.76,455.20 917.85,472.42 917.95,480.55 918.04,483.40 918.13,491.66 918.42,465.68 918.51,447.32 918.60,443.62 918.70,447.37 918.79,441.06 919.07,439.80 919.17,444.48 919.26,468.97 919.36,466.64 919.45,478.28 919.73,476.92 919.92,461.56 920.01,465.44 920.11,468.52 920.39,467.13 920.48,458.67 920.58,457.15 920.67,470.29 920.77,458.96 921.05,454.39 921.14,446.91 921.24,454.11 921.33,452.09 921.42,474.51 921.71,460.12 921.80,473.32 921.89,473.59 921.99,473.59 922.36,483.06 922.46,469.82 922.55,471.88 922.65,461.57 922.74,460.47 923.02,452.64 923.12,462.81 923.21,456.51 923.30,444.00 923.68,459.18 923.77,451.83 923.87,442.14 923.96,443.72 924.06,450.87 924.34,453.28 924.43,458.86 924.53,463.41 924.62,441.61 924.71,427.99 925.00,422.61 925.09,426.49 925.18,423.45 925.28,420.48 925.37,417.09 925.65,411.99 925.75,412.99 925.84,411.70 925.94,439.41 926.03,463.21 926.31,447.80 926.41,462.07 926.50,456.38 926.59,463.74 926.69,451.98 926.97,453.39 927.06,435.90 927.16,433.17 927.25,439.50 927.35,452.46 927.63,443.72 927.72,458.09 927.82,464.51 927.91,467.87 928.00,448.46 928.29,455.41 928.38,446.76 928.47,445.96 928.57,434.72 928.66,457.00 929.04,469.20 929.13,475.18 929.23,470.11 929.32,476.04 929.60,474.13 929.70,474.20 929.79,477.38 929.88,471.72 929.98,478.26 930.26,474.28 930.35,476.16 930.45,471.51 930.54,462.19 930.64,457.03 930.92,447.11 931.01,451.27 931.11,459.68 931.20,472.42 931.29,451.20 931.58,447.45 931.67,443.97 931.76,431.43 931.86,419.67 931.95,425.75 932.23,424.92 932.33,441.36 932.42,414.91 932.52,421.63 932.61,481.43 932.89,462.73 932.99,474.19 933.08,462.18 933.17,462.16 933.27,457.96 933.55,446.08 933.64,443.89 933.74,463.39 933.83,449.35 933.93,436.37 934.21,419.39 934.30,421.70 934.40,419.05 934.49,426.79 934.58,419.28 934.87,375.01 934.96,396.22 935.05,370.90 935.15,365.58 935.24,361.58 935.52,331.15 935.62,339.72 935.71,339.11 935.81,375.55 935.90,378.70 936.18,419.98 936.28,443.72 936.37,434.40 936.46,488.36 936.56,486.59 936.84,476.51 936.93,471.14 937.03,465.74 937.22,446.64 937.50,449.84 937.59,439.93 937.69,413.27 937.78,418.76 937.87,410.85 938.16,421.25 938.25,423.39 938.34,410.54 938.44,412.42 938.53,448.61 938.81,455.93 938.91,453.68 939.00,477.89 939.10,462.78 939.19,453.69 939.47,449.05 939.57,443.51 939.66,438.42 939.85,437.03 940.13,439.98 940.22,438.01 940.32,451.12 940.51,451.85 940.79,434.76 940.88,404.91 940.98,408.74 941.07,428.91 941.16,417.69 941.45,421.55 941.54,426.93 941.63,439.93 941.73,430.60 941.82,433.80 942.20,439.08 942.29,399.95 942.39,377.09 942.48,380.26 942.76,376.02 942.86,365.74 942.95,357.94 943.04,356.12 943.14,387.42 943.42,370.95 943.51,396.50 943.61,434.85 943.70,458.55 943.80,423.94 944.08,411.65 944.17,422.73 944.27,419.73 944.36,454.07 944.45,445.35 944.83,437.53 944.92,426.26 945.02,427.52 945.11,398.57 945.39,426.39 945.49,419.75 945.58,400.59 945.68,410.28 945.77,408.44 946.05,418.76 946.15,446.19 946.24,415.20 946.33,418.57 946.43,435.59 946.71,420.42 946.80,410.41 946.90,407.28 946.99,424.63 947.09,409.37 947.37,374.68 947.46,364.20 947.56,383.93 947.65,378.85 947.74,381.43 948.03,364.78 948.12,372.45 948.21,358.67 948.31,393.81 948.40,423.76 948.68,447.87 948.78,435.60 948.87,431.69 948.97,436.83 949.34,464.82 949.44,468.88 949.53,460.08 949.62,469.26 949.72,481.67 950.00,473.98" />
</svg>